<svg width="618" height="616" viewBox="0 0 618 616" fill="none" xmlns="http://www.w3.org/2000/svg">
<path d="M493.57 62.14L500.42 67.48L507.09 72.97L513.58 78.61L519.9 84.4L526.03 90.35L531.99 96.45L537.77 102.7L543.37 109.1L552.05 119.77L560.26 130.85L568 142.31L575.28 154.18L580.58 163.62L585.53 173.19L590.14 182.91L594.41 192.77L598.66 203.66L602.51 214.71L605.95 225.93L608.99 237.31L611.53 248.56L613.63 260.05L615.29 271.76L616.51 283.7L617.2 295.13L617.41 307.36L617.16 320.37L616.43 334.18L615.55 343.78L614.15 354.03L612.09 365.87L609.62 377.48L606.75 388.88L603.48 400.05L599.81 411L595.73 421.73L591.25 432.24L586.37 442.53L579.25 455.91L570.66 470.49L565.13 479.12L559.52 487.09L552.59 496.15L545.42 504.9L538.01 513.35L530.36 521.48L522.48 529.3L514.35 536.81L505.98 544.02L497.38 550.91L488.25 557.69L478.86 564.15L469.22 570.28L459.33 576.07L449.18 581.54L438.77 586.68L428.11 591.48L417.2 595.96L407.45 599.57L398.33 602.55L389.38 605.11L380.41 607.4L371.42 609.42L362.42 611.16L353.4 612.63L344.37 613.83L335.32 614.76L326.26 615.42L316.8 615.81L307.33 615.91L297.84 615.71L288.34 615.22L278.82 614.44L269.28 613.36L259.72 611.98L250.15 610.31L241.67 608.46L231.51 605.81L213.03 600.53L207.06 598.57L200.48 596.18L185.52 590.07L173.54 584.42L157.72 576.16L148.46 570.87L138.93 564.85L129.12 558.09L119.05 550.59L112.31 545.13L104.82 538.56L96.57 530.87L87.57 522.07L82.01 516.36L76.61 510.5L71.32 504.42L66.19 498.2L61.25 491.84L56.47 485.36L51.82 478.67L47.34 471.85L43.02 464.86L38.88 457.76L34.93 450.55L31.16 443.24L27.56 435.77L24.14 428.2L20.93 420.54L17.9 412.8L14.6 403.48L11.59 393.81L8.68001 383.05L6.19 372.15L4.12 361.11L2.46001 349.93L1.23 338.62L0.410004 327.16L0 315.58L0.0200043 303.85L0.339996 294.05L0.940002 284.4L1.81 274.89L2.95 265.52L4.36 256.3L6.04001 247.22L8 238.29L10.23 229.5L12.2 222.68L14.43 215.76L16.01 211.03L18.66 203.17L20.7 197.65L26.11 184.8L32.03 172.27L38.46 160.05L45.41 148.16L53.37 135.86L61.9 123.91L71.02 112.33L80.72 101.1L93.33 88.39L100.46 81.55L106.4 76.16L114.04 69.7L121.79 63.54L129.64 57.68L137.59 52.11L145.65 46.85L153.81 41.88L162.07 37.2L170.43 32.83L177.94 29.22L186.38 25.49L195.74 21.62L206.01 17.62L215.53 14.26L224.98 11.4L232.99 9.29001L240.99 7.40001L249 5.71001L257 4.23001L264.99 2.96001L272.99 1.89L280.98 1.04001L288.97 0.389999L298.85 0.0200043L313.5 0L320.98 0.0200043L328.38 0.190002L336.55 0.779999L345.5 1.79001L355.21 3.21001L365.36 5.02L375.41 7.15001L385.37 9.60001L395.23 12.38L408.93 16.81L422.43 21.88L429.69 24.92L435.47 27.63L444.13 31.69L452.63 36.03L463.64 42.22L474.13 48.63L484.11 55.27L493.57 62.14ZM311.17 611.12L322.16 610.89L331.22 610.41L340.86 609.54L350.45 608.35L363.22 606.29L375.92 603.68L388.54 600.51L401.08 596.8L408.07 594.43L416.79 591.2L426.47 587.42L432.26 584.94L443.65 579.35L454 573.95L463.29 568.73L471.53 563.71L479.3 558.59L486.88 553.28L494.26 547.77L501.45 542.09L508.44 536.21L515.23 530.14L521.83 523.88L528.23 517.44L534.35 510.9L540.28 504.18L546.02 497.28L551.56 490.19L556.92 482.92L562.09 475.46L567.06 467.82L571.85 460L575.97 452.81L579.89 445.51L583.6 438.11L587.11 430.6L590.4 423L593.47 415.3L596.33 407.52L598.96 399.66L601.37 391.76L603.55 383.78L605.51 375.74L607.24 367.63L608.73 359.53L609.99 351.36L611.02 343.15L611.82 334.9L612.78 321.25L613.09 311.6L612.8 298.31L612 285.21L610.69 272.28L608.87 259.52L606.53 246.95L603.68 234.55L600.31 222.33L596.44 210.28L593.28 201.6L590.2 193.85L586.92 186.19L583.44 178.65L579.75 171.21L574.68 161.73L569.27 152.42L563.52 143.3L557.43 134.34L551 125.56L544.23 116.95L537.13 108.52L529.68 100.26L522.74 93.12L515.47 86.23L507.44 79.13L499.35 72.38L491.21 66L483.02 59.98L474.78 54.32L466.48 49.02L458.13 44.09L449.72 39.51L441.52 35.38L433.27 31.5L424.97 27.88L416.63 24.52L408.24 21.42L399.8 18.57L391.31 15.98L382.78 13.65L372.33 11.16L357.98 8.39L343.48 6.33L328.82 4.96001L314.01 4.31001L306 4.22L297.98 4.44L283.19 5.35001L268.55 6.96001L254.09 9.28L239.79 12.29L229.39 14.96L220.89 17.43L212.45 20.17L204.06 23.16L195.73 26.4L187.44 29.9L179.21 33.66L171.03 37.68L162.9 41.95L154.57 46.67L146.3 51.75L138.09 57.19L129.95 62.99L121.86 69.15L113.83 75.67L105.86 82.55L97.95 89.79L90.8 96.8L83.98 104.06L76.68 112.44L69.71 121L63.09 129.72L56.82 138.61L50.88 147.66L45.29 156.89L40.03 166.28L35.13 175.84L31.57 183.35L28.21 190.95L25.06 198.66L22.12 206.47L19.11 215.2L15.44 227.31L12.28 239.59L9.64 252.03L7.52 264.65L5.91 277.43L4.82001 290.38L4.24001 303.5L4.19 316.79L4.66 326.43L5.85001 340.06L6.79001 348.3L7.96001 356.49L9.36 364.63L10.99 372.71L12.86 380.79L14.95 388.8L17.27 396.73L19.81 404.59L22.58 412.41L25.57 420.14L28.77 427.78L32.19 435.33L35.82 442.77L39.66 450.12L43.7 457.35L47.95 464.46L52.87 472.2L57.97 479.76L63.27 487.12L68.75 494.3L74.41 501.29L80.27 508.1L86.31 514.72L92.54 521.15L99.05 527.49L105.75 533.63L112.65 539.58L119.74 545.34L127.02 550.9L134.49 556.28L142.16 561.46L150.02 566.45L158.34 571.33L167.72 576.39L178.16 581.61L189.65 587.01L195.48 589.39L205.22 593L213.99 596.08L221.02 598.33L233.63 601.83L246.3 604.78L259.04 607.18L271.85 609.02L281.46 610.04L291.1 610.75L300.17 611.08L311.17 611.12Z" fill="white"/>
<path d="M260.97 55.8699L263.9 57.4699L266.29 59.5599L267.45 61.0399L268.41 62.6799L269.19 64.4999L269.77 66.4899L270.29 69.0899L271.23 72.9999L271.76 74.0499L272.48 74.7199L273.39 74.9399L274.62 74.7499L277.06 74.2999L280.22 74.1099L280.62 73.9899L280.86 73.6199L281.29 71.4299L281.33 69.0999L280.5 52.4599L280.12 36.0299L279.03 29.6599L278.82 29.2799L278.4 29.1499H276.37H276.36L275.55 28.8099L275.23 27.9899L275.09 25.6799L274.62 23.6799L274.59 23.5499L274.77 22.7599L275.49 22.3899L288.89 21.7099L289.5 21.8499L289.94 22.2799L312.79 61.8599L312.94 61.9999L313.03 61.8099L313.28 57.9999L312.78 52.5599L312.44 49.3799L310.96 28.5999L310.79 28.1899L310.38 28.0299L308.22 27.8999L307.4 27.7399L306.8 27.3499L306.43 26.7499L306.27 25.9299L306.11 22.9299L306.18 22.1999L306.46 21.6599L306.98 21.3199L307.71 21.1699L323.29 20.3799L323.96 20.6299L324.25 21.2799V21.3099L324.14 25.8299L323.83 26.7399L322.95 27.1999L321.51 27.1799L320.92 27.1699L320.5 27.3699L320.26 27.7599L320.19 28.3399L320.73 33.1399L321.23 37.3099L323.34 74.7799L323.65 77.3499L323.92 79.6199L323.82 79.9899L323.44 80.1199H314.14L313.58 79.9799L313.22 79.5899L290.42 40.1099L289.97 39.4799L289.63 39.3099L289.39 39.6099L289.26 40.3799L289.2 44.9299L289.71 51.4999L290.19 58.6799L290.28 72.2299L290.57 72.8999L291.24 73.1599H291.26L293.9 73.0199L294.38 73.0999L294.79 73.3699L295.1 74.0999L295.34 78.8199L295.09 79.6999L294.22 80.0099L289.3 80.1999L284.5 80.6299L279.81 81.3099L275.25 82.2399L271.74 82.9499L269.69 83.0799L268.22 82.7399L266.94 82.0999L265.82 81.2099L264.81 80.0599L263.84 78.5299L262.23 74.7299L260.71 69.0199L260.31 67.3599L259.48 64.7199L258.56 63.1099L257.73 62.3399L256.84 61.7899L254.83 61.2799L252.34 61.4999L242.32 63.5099L241.58 63.9199L241.5 64.7599L244.83 79.4999L245.4 80.5899L246.54 81.1399L248.15 81.0399L250.02 80.2099L250.61 80.1499L251.05 80.5499L251.08 80.6499L252.31 85.5499L252.33 86.2899L252.04 86.9799L251.6 87.4099L251.04 87.6599L234.66 91.7699L233.68 91.7099L233.07 90.9299L231.53 86.7199L231.5 85.8299L232.2 85.2699L235.59 84.0299L235.92 83.7699L235.95 83.3599L226.34 40.8499L226.32 40.7799L225.72 40.0599L224.78 39.9999L222.87 40.6999L222.08 40.7099L221.67 40.0699L220.47 35.3099L220.52 34.6099L221.13 34.2499L227.86 32.6299L238.34 30.1499L245.99 28.6899L251.31 28.1499L253.35 28.1799L254.98 28.4099L256.87 28.9699L258.59 29.7099L260.14 30.6299L261.52 31.7299L263 33.3499L264.34 35.3299L265.51 37.5399L266.38 39.7699L266.97 42.0799L267.22 44.1599L267.16 46.2199L266.79 48.0599L266.08 49.8099L265.81 50.2999L264.86 51.7199L263.73 53.0299L260.92 55.3299L260.69 55.6299L260.97 55.8699ZM235.7 39.9899L239.27 55.3399L239.85 56.1499L240.83 56.3099L250.49 54.0599L252.17 53.5099L253.71 52.6599L255.06 51.5599L256.15 50.2399L256.96 48.7599L257.44 47.1699L257.59 45.5299L257.39 43.9099L257 42.2399L256.47 40.6999L255.61 39.2899L254.47 38.0799L253.1 37.1099L251.53 36.4099L249.84 36.0099L248.08 35.9399L246.33 36.1799L236.67 38.4299L236.01 38.8099L235.68 39.4999L235.7 39.9899Z" fill="white"/>
<path d="M353.25 50.05H353.73L354.04 49.69L354.06 49.6L354.36 46.92L354.54 46.48L354.98 46.27L356.4 46.11L359.5 46.36L362.64 47.4L363.12 47.88L363.17 48.56L362.3 52.04L361.67 55.51L361.27 58.9901L361.12 62.47L360.97 62.88L360.58 63.08L358.02 63.15L355.59 62.7401L353.87 62.11L353.47 61.7701L353.31 61.28L353.15 58.04L353 57.62L352.66 57.35L350.11 56.4901L347.88 56.09L345.58 55.9901L344.83 56.25L344.38 56.9L343.13 61.95L341.97 69.06L341.39 72.83L341.41 73.37L341.62 73.85L342.01 74.22L342.52 74.41L360.14 77.18L360.71 77.05L361.03 76.56L361.7 72.98L362.02 72.03L362.57 71.39L363.34 71.06L364.34 71.03L368.21 71.47L369.13 71.71L369.73 72.19L370.01 72.91L369.97 73.86L367.93 84.65L367.69 85.25L367.24 85.72L366.65 85.98L366 86L327.94 80L327.29 79.67L327.1 78.96L327.38 74.11L327.78 73.29L328.65 72.9901L331.23 73.14L331.67 72.9901L331.9 72.59L338.53 30.6L338.6 30.37L338.96 29.43L339.04 28.6L338.84 28.13L338.35 27.99L336.2 28.1L335.64 27.9L335.39 27.37L335.13 22.37L335.21 21.56L335.53 21.03L336.1 20.79L336.91 20.82L375.53 28.12L376.01 28.38L376.08 28.91L373.41 43.02L373.21 43.52L372.84 43.9L372.35 44.11L371.82 44.12H371.81L366.46 43.11L365.73 42.71L365.59 41.87L366.73 34.59L366.68 34.24L366.35 34.05L350.31 31.02L349.63 30.99L349.1 31.18L348.71 31.61L348.49 32.27L345.46 48.33L345.56 48.8L345.97 49.05H346.01L347.62 49.07L350.25 49.13L351.96 49.49L353.25 50.05Z" fill="white"/>
<path d="M396.21 40.55L395.76 40.24L395.44 40.21L395.24 40.47L395.17 41.02L395.26 45.95L395.62 50.91L396.24 55.9L397.14 60.92L397.32 61.43L397.59 61.67L397.94 61.63L398.38 61.32L413.87 47.09L414.04 46.64L413.77 46.24L413.61 46.18L412.17 45.55L411.42 44.62L411.31 44.22L411.45 43.81L413.44 40.66L413.95 40.26L414.6 40.28L429.29 46.16L429.94 46.71L429.89 47.57L427.96 52.4L427.7 52.86L427.36 53.08L426.97 53.07L426.5 52.83L425.22 52.18L423.16 51.48L422.68 51.45L422.27 51.67L419.6 54L400.48 70.95L398.85 72.79L397.77 74.77L395.7 80.65L393.41 88.29L393.44 88.76L393.85 88.97L395.38 89.21L396.2 89.46L396.75 89.91V89.92L397.01 90.57L397 91.43L396.51 94.51L396.28 95.27L395.87 95.73L395.27 95.89L394.48 95.76L391.24 94.72L383.39 92.06L380.77 90.94L378.56 89.76L378.24 89.41L378.27 88.94L378.62 87.94L379.74 85.25L380.33 84.53L381.08 84.11L382.04 84.07L383.23 84.54L383.9 84.6L384.4 84.15L384.43 84.07L386.34 78.47L388.59 72.68L388.95 71.23L389.12 69.04L388.9 65.4L385.68 41.34L384.97 37.73L384.77 37.34L384.42 37.09L382.27 36.23L381.7 35.91L381.35 35.47L381.23 34.94L381.33 34.29L382.5 30.33L382.78 29.71L383.19 29.35L383.73 29.25L384.4 29.41L398.22 34.94L398.9 35.46L399.22 36.24L399.28 38.46L398.9 40.56L398.48 41.72L398.16 42.07L397.72 41.89L396.21 40.55Z" fill="white"/>
<path d="M174.27 61.4597L172.03 62.6497L171.48 62.7197L171.02 62.3997L168.36 58.4597L168.23 58.0097L168.56 57.6497L182.74 50.0897L182.94 49.9997L183.67 49.8897L184.39 50.0897L184.96 50.5597L185.29 51.2297L186.06 54.3597L186.16 55.6797L185.81 56.6597L185.33 57.1297L184.66 57.4497L184.62 57.4597L184.15 57.9297L184.16 58.5997L198.71 92.1797L199.45 93.5297L200.4 94.5697L201.75 95.4597L203.29 95.9797L205.03 96.1897L207.06 96.0797L209.24 95.6197L211.53 94.8197L213.65 93.7597L215.41 92.5497L215.6 92.3897L216.42 91.3997L216.99 90.2197L217.34 88.7497L217.44 87.1497L217.32 85.2697L216.95 83.1997L216.33 80.9797L215.54 78.8997L202.54 49.8397L201.87 49.1997L200.95 49.2197L198.94 50.0897L198.11 50.1697L197.51 49.5897L195.42 45.6797L195.28 44.7897L195.94 44.1897L210.25 37.9597L211.16 37.9297L211.86 38.5197L214.05 42.6497L214.17 43.3397L213.69 43.8397L211.64 44.9397L211.29 45.2797L211.25 45.7797L211.89 47.9097L212.98 50.4997L223.82 73.5897L225.66 77.8697L227.53 83.1997L227.87 84.6797L227.92 86.1497L227.54 88.0097L226.1 91.4197L224.22 94.4897L222.6 96.4897L220.79 98.2997L218.71 99.9697L216.47 101.41L214.07 102.63L211.53 103.61L208.87 104.36L206.12 104.86L202.19 105.04L200.47 104.82L198.91 104.41L197.05 103.61L195.42 102.63L193.51 100.96L191.8 98.8197L190.23 96.0997L188.63 92.5297L180.92 74.2297L175.24 61.7697L174.84 61.3597L174.27 61.4597Z" fill="white"/>
<path d="M478.52 111.399L475.4 115.769L471.97 119.399L468.12 122.399L464 124.639L460.42 125.939L456.56 126.769L453.64 127.049L450.85 126.979L448.2 126.569L445.69 125.819L442.47 124.419L439.41 122.699L436.68 120.749L434.22 118.519L432.21 116.189L430.53 113.629L429.28 110.989L428.43 108.159L428.24 107.159L427.87 104.069L427.82 101.049L428.27 96.5893L429.4 92.0693L431.15 87.6893L433.56 83.2893L436.47 79.1893L439.64 75.6993L443.21 72.7093L447.02 70.3493L449.76 69.0793L452.69 68.0493L453.68 67.7893L456.6 67.3193L459.52 67.2793L462.55 67.6693L465.53 68.4593L468.61 69.6893L471.56 71.2993L474.44 73.2893L477.11 75.5793L478.89 77.5093L480.41 79.7093L481.69 82.1893L482.73 84.9293L483.66 88.7693L484.07 92.5593L483.85 97.2393L482.84 102.009L481.08 106.689L478.52 111.399ZM441.55 88.5793L439.59 92.4793L438.04 96.9193L437.33 100.229L437.13 103.299L437.46 106.159L438.3 108.779L439.51 110.969L441.16 112.979L443.23 114.799L445.73 116.429L448.61 117.689L451.53 118.219L453.75 118.149L455.99 117.669L459.44 116.359L462.45 114.649L464.65 112.929L466.65 110.939L468.5 108.629L470.33 105.849L471.93 102.919L473.09 100.179L473.91 97.4893L474.39 94.7293L474.48 91.2793L474.01 87.6193L473.38 85.4093L472.4 83.4193L470.55 81.0993L468.08 79.1493L465.47 77.7093L462.88 76.7393L460.34 76.2393L457.83 76.1993L455.12 76.6893L452.45 77.7493L449.83 79.3693L447.25 81.5593L444.06 85.0193L441.55 88.5793Z" fill="white"/>
<path d="M178.38 86.7794L180.06 89.4694L181.46 92.1994L182.6 94.9594L183.47 97.7594L184.46 102.879L184.65 107.639L184.46 109.889L184.07 112.039L183.48 114.099L182.69 116.069L181.19 118.779L179.27 121.299L177.31 123.339L175.23 125.139L173.03 126.699L170.71 128.019L166.81 129.609L162.62 130.599L159.73 130.879L156.87 130.789L153.25 130.139L149.68 128.869L146.17 126.999L142.72 124.509L140.79 122.789L138.89 120.789L135.2 115.969L132.1 110.749L130.95 108.239L130.07 105.809L129.05 101.679L128.62 97.7194L128.78 93.9394L129.52 90.3294L130.5 87.6494L131.84 85.0694L134.33 81.5494L137.25 78.5194L139.34 76.8594L141.61 75.3994L144.05 74.1394L146.68 73.0894L149.73 72.2394L152.8 71.8594L154.92 71.8694L157.06 72.0894L159.2 72.5294L161.36 73.1794L165.7 75.1394L170.09 77.9694L172.36 79.8094L174.5 81.8994L176.5 84.2194L178.38 86.7794ZM143.01 110.969L145.71 114.349L149.08 117.589L151.77 119.599L154.47 121.049L157.18 121.929L159.89 122.259L162.38 122.069L164.87 121.419L167.37 120.299L169.88 118.709L172.2 116.629L173.89 114.219L174.75 112.179L175.24 109.959L175.48 106.299L175.18 102.879L174.54 100.179L173.57 97.5594L172.25 94.9194L170.49 92.1194L168.51 89.4694L166.53 87.2894L164.43 85.4294L162.14 83.8594L159.05 82.3494L155.56 81.2594L153.31 80.9194L151.1 80.9794L148.24 81.6894L145.46 83.1094L143.08 84.8794L141.14 86.8094L139.63 88.8894L138.56 91.1394L137.88 93.7994L137.73 96.6394L138.11 99.6794L139.02 102.919L140.82 107.219L143.01 110.969Z" fill="white"/>
<path d="M497.76 127.02L499.6 125.33L500.33 125.07L501.03 125.39L505.32 130.06L505.68 130.84L505.29 131.61L496.29 140.61L495.48 141.06L494.55 140.91L492.46 139.64L490.4 137.81L490.19 137.41L490.27 136.96L490.86 136L491.54 135.27L492.1 134.29L491.91 133.18L489.92 130.28L487.5 127.9L486.58 127.2L486.19 127.06L485.78 127.22L483.54 129.16L481.58 131.22L474.05 139.8L473.38 140.76L473.3 141.54L473.39 141.74L474.2 142.52L475.63 143.29L475.73 143.35L475.97 143.77L475.79 144.22L471.03 148.59L470.57 148.79L470.13 148.57L458.62 137.02L458.38 136.54L458.64 136.05L462.4 132.6L462.93 132.37L463.39 132.71L464.31 133.7L465.2 134.01L466.15 133.54L469.51 130.34L474.56 125.47L477.99 121.92L481.04 118.45L486.73 112.12L493.93 104.81L495.38 102.88L496.31 100.41L496.29 99.8999L495.94 99.5299L494.52 98.7099L494.08 98.1999L494.36 97.5899L498.7 93.0299L498.98 92.8799L499.46 93.0799L507.13 100.31L514.46 107.64L521.46 115.1L528.12 122.66L528.24 123.04L528.07 123.4L518.87 131.85L518.34 132.22L517.81 132.34L517.27 132.23L516.72 131.87L513.69 129.19L513.23 128.65L513.08 128.11L513.23 127.57L513.67 127.03L516.7 124.25L517.17 123.67L517.32 123.1L517.16 122.53L516.69 121.97L513.2 118.65L510 115.3L507.06 111.92L504.41 108.51L504.35 108.44L503.71 108.16L503.07 108.45L492.22 120.72L491.95 121.36L492.12 122.04L494.25 124.72L496.95 127.07L497.35 127.21L497.76 127.02Z" fill="white"/>
<path d="M100.21 271.549L102.24 261.579L104.69 251.789L107.55 242.189L110.83 232.759L114 224.729L117.42 216.909L121.11 209.289L125.07 201.889L129.28 194.679L133.75 187.689L138.49 180.899L143.48 174.319L149.71 166.839L156.29 159.639L163.24 152.699L170.45 146.119L177.92 139.899L185.64 134.029L191.84 129.699L198.2 125.589L204.71 121.689L211.38 118.009L219.22 114.079L227.2 110.489L239.04 105.899L251.19 102.049L263.64 98.9192L276.41 96.5192L287.33 95.0892L298.21 94.2292L309.07 93.9492L319.89 94.2392L326.83 94.7292L333.76 95.4592L340.67 96.4292L347.57 97.6292L354.46 99.0692L361.33 100.749L368.19 102.669L375.04 104.819L386.7 109.059L397.99 113.919L408.89 119.389L419.41 125.479L426.71 130.219L433.82 135.269L440.73 140.639L447.45 146.329L453.97 152.339L460.3 158.649L466.43 165.289L472.36 172.239L478.28 179.799L483.76 187.529L488.79 195.399L493.37 203.439L498.53 213.429L502.91 222.729L506.59 231.509L509.61 239.859L512.9 250.849L514.86 258.699L516.52 266.629L517.89 274.639L518.95 282.729L519.72 290.899L520.18 299.149L520.35 307.489L520.22 315.899L519.57 328.629L518.56 338.219L517.19 346.479L515.53 354.609L513.59 362.589L511.38 370.429L508.87 378.129L506.09 385.689L503.03 393.109L499.68 400.389L494.78 410.199L490.49 418.139L486.9 424.149L483.04 430.069L478.88 435.869L474.45 441.579L467.95 449.309L461.41 456.459L454.82 463.049L448.19 469.069L441.81 474.349L433.71 480.629L428.12 484.689L422.22 488.619L416.16 492.319L409.78 495.889L403.18 499.269L396.27 502.499L389.18 505.539L381.8 508.419L375.51 510.659L369.22 512.679L362.95 514.479L356.68 516.069L350.43 517.449L344.18 518.599L337.95 519.539L331.72 520.269L323.94 520.889L315.84 521.249L307.44 521.319L298.73 521.129L287.1 520.359L275.74 518.929L264.64 516.839L253.81 514.089L241.34 510.169L228.88 505.589L222.37 502.899L216 500.019L209.78 496.949L203.71 493.689L197.78 490.239L191.99 486.599L186.35 482.759L180.86 478.739L174.92 474.049L169.17 469.119L163.6 463.959L158.2 458.559L153.45 453.439L148.54 447.759L143.46 441.519L138.22 434.729L132.32 426.489L126.89 418.039L121.93 409.359L117.42 400.459L113.29 391.109L109.64 381.519L105.94 370.159L102.91 359.079L100.55 348.299L98.8602 337.809L97.9202 329.039L97.3602 319.799L97.1602 310.099L97.3301 299.939L97.7101 292.409L98.3102 285.169L99.1501 278.209L100.21 271.549ZM275.56 105.219L264.31 107.489L253.05 110.439L241.79 114.069L230.51 118.389L222.3 122.029L214.13 126.139L206.01 130.729L197.93 135.789L187.64 142.999L177.9 150.719L168.73 158.959L160.11 167.719L152.61 176.339L145.58 185.399L139.04 194.899L132.99 204.859L126.96 216.189L121.66 227.729L117.1 239.479L113.28 251.439L110.83 260.829L108.83 270.349L107.26 279.999L106.14 289.769L105.49 299.129L105.25 308.449L105.43 317.739L106.03 326.989L107.17 337.109L108.81 347.189L110.95 357.219L113.59 367.209L115.45 373.239L117.5 379.179L119.74 385.049L122.16 390.819L125.52 398.029L129.18 405.109L133.14 412.049L137.41 418.849L143.35 427.609L148.91 435.199L154.89 442.589L161.26 449.679L168.03 456.469L175.2 462.959L184.26 470.339L193.62 477.149L203.29 483.379L213.26 489.039L219.03 491.989L224.9 494.749L230.87 497.319L236.94 499.719L243.1 501.929L249.36 503.949L255.72 505.789L262.18 507.449L273.28 509.839L284.08 511.579L294.57 512.679L304.75 513.139L313.03 513.079L321.33 512.669L329.65 511.929L337.98 510.839L346.32 509.419L354.69 507.649L363.07 505.539L371.46 503.089L381.08 499.809L390.43 496.059L399.51 491.829L408.32 487.129L410.02 486.149L419.96 480.029L425.97 475.989L431.86 471.769L438.65 466.399L445.65 460.219L453.07 453.029L461.19 444.569L467.08 437.769L472.83 430.169L478.6 421.569L484.74 411.439L489.69 402.429L494.14 393.249L498.1 383.899L501.57 374.389L504.97 363.209L507.7 351.819L509.78 340.199L511.21 328.359L511.86 319.519L512.17 310.649L512.15 301.729L511.8 292.779L511.28 286.629L510.41 279.859L509.19 272.459L507.63 264.409L505.12 253.829L502 243.369L498.26 233.039L493.92 222.839L489.92 214.589L485.47 206.329L480.57 198.059L475.23 189.779L469.43 181.739L462.99 173.909L457.32 167.649L451.47 161.629L445.46 155.849L439.28 150.309L431 143.519L422.53 137.319L413.87 131.709L405.03 126.689L397.86 123.079L390.53 119.749L383.02 116.689L375.35 113.899L367.5 111.379L359.48 109.129L351.3 107.159L342.94 105.459L333.08 103.969L323.09 103.129L309.97 102.729L297.68 102.949L286.21 103.779L275.56 105.219Z" fill="white"/>
<path d="M116.74 103.97L116.41 104.43L116.28 104.98L116.37 105.55L116.68 106.03L116.7 106.05L130.06 119.54L141.93 132.16L143.85 134.4L145.36 136.47L146.44 138.37L147.11 140.1L147.51 142.55L147.4 144.67L146.86 146.81L145.9 148.98L144.52 151.16L142.94 153.07L141.16 154.72L139.33 156.02L137.32 157.11L135.13 157.97L132.77 158.62L129.61 159L128.16 158.89L126.83 158.6L125.13 157.89L123.4 156.75L121.58 155.13L119.13 152.55L118.49 151.86L118.47 151.84L118.19 150.99L118.6 150.19L124 145.73L124.45 145.45L124.83 145.42L125.12 145.66L125.33 146.15L125.66 146.9L126.25 147.65L128.18 149.13L130.12 149.97L132.11 150.13L133.65 149.73L135.06 148.9L136.41 147.63L137.57 146.02L138.05 144.99L138.25 143.94L138.15 142.88L137.77 141.8L137.11 140.71L136.15 139.61L122.33 125.08L119.6 122.15L110.81 113.25L109.51 112.25L108.46 112.05L108.4 112.06L107.1 112.7L105.95 114L105.73 114.17L105.47 114.03L101.22 109.41L101.13 109.19L101.24 108.99L113.84 97.4199L114.55 97.0898L115.24 97.4799L118.44 100.96L118.79 101.72L118.38 102.47L116.74 103.97Z" fill="white"/>
<path d="M336.72 504.069L328.31 505.289L322.54 505.809L311.22 506.179L305 506.239L299.82 506.059L289.22 505.149L278.76 503.719L268.44 501.769L258.26 499.309L250.8 497.139L243.42 494.699L236.11 491.969L228.88 488.949L216.67 482.889L210.11 479.399L204.79 476.259L196.68 470.909L189.32 465.629L182.71 460.419L176.85 455.269L162.54 440.689L158.71 436.429L154.64 431.419L150.34 425.659L145.81 419.149L141.43 412.409L137.36 405.579L133.6 398.679L130.15 391.689L127.01 384.619L124.17 377.469L121.65 370.239L119.43 362.929L117.77 356.599L115.97 348.549L114.51 340.409L113.37 332.189L112.58 323.889L112.11 315.509L111.98 307.039L112.18 298.499L112.72 289.869L113.81 280.309L115.56 270.079L117.04 263.179L118.74 256.379L120.65 249.689L122.77 243.109L125.11 236.629L127.66 230.269L130.42 224.009L133.39 217.849L136.34 212.249L139.47 206.739L142.78 201.319L146.28 195.989L149.96 190.759L153.82 185.619L162.09 175.609L169.18 167.939L176.03 161.279L185.21 153.379L194.72 146.099L204.59 139.439L214.8 133.409L224.25 128.529L233.98 124.159L243.99 120.279L254.28 116.909L260.85 115.079L267.54 113.499L274.34 112.169L281.25 111.079L288.28 110.229L295.43 109.629L302.69 109.269L310.06 109.159L314.72 109.279L319.4 109.629L328.71 110.479L338.08 111.549L347.32 113.069L356.43 115.029L365.4 117.449L368.62 118.439L374.81 120.579L381.51 123.239L388.73 126.409L396.47 130.089L405.36 134.769L413.81 139.839L421.68 145.129L429.24 150.749L436.48 156.699L443.42 162.969L449.3 168.799L454.93 174.889L460.33 181.239L465.48 187.839L470.38 194.689L475.04 201.809L479.46 209.179L483.63 216.809L486.37 222.259L488.89 227.709L491.18 233.159L493.25 238.609L496.84 249.479L499.81 260.419L502.16 271.439L503.89 282.549L505.04 294.399L505.5 306.349L505.42 314.399L505.05 322.359L504.38 330.219L503.42 337.989L502.15 345.669L500.59 353.259L498.74 360.749L496.58 368.149L492.78 379.119L488.31 389.869L483.17 400.409L477.35 410.739L472.22 418.769L466.61 426.609L460.52 434.259L453.95 441.709L447 448.939L439.81 455.819L433.73 461.179L427.46 466.239L421.01 471.009L414.37 475.479L404.94 481.139L395.17 486.249L385.04 490.809L374.55 494.819L365.89 497.609L356.69 500.079L346.97 502.229L336.72 504.069ZM324.3 152.559L324.27 148.099L327.18 118.099L327.15 115.459L326.77 114.579L325.86 114.229L314.65 113.579L313.82 113.649L313.2 113.959L312.82 114.529L312.65 115.349L309.18 174.899L309.45 175.649L310.18 175.979H310.22L315.8 176.059L321.08 176.469L328.04 177.409L334.8 178.679L341.37 180.259L347.75 182.149L353.94 184.369L359.93 186.899L365.74 189.759L371.35 192.929L378.76 197.809L385.81 203.299L392.49 209.389L398.81 216.079L402.19 220.089L405.31 224.109L408.16 228.139L410.75 232.189L413.6 237.169L416.16 242.259L418.44 247.439L420.42 252.719L422.64 259.999L424.33 267.459L425.5 275.099L426.15 282.919L426.29 290.099L426 297.199L425.29 304.209L424.15 311.149L422.58 317.999L420.59 324.769L418.17 331.459L415.33 338.069L415.2 339.059L415.65 339.959L416.02 340.339L418.45 343.029L419.85 345.429L420.84 348.229L421.51 351.019L421.87 353.789L421.92 356.549L421.46 360.409L420.18 364.569L417.76 370.029L413.08 379.239L412.13 380.569L410.99 381.659L409.6 382.539L407.99 383.149L407.57 383.439L407.63 383.949L411.03 390.649L414.04 395.559L417.3 399.859L421.47 405.189L425.56 411.019L427 413.439L428.1 415.889L428.91 418.429L429.38 420.989L429.51 424.469L429.06 427.939L428.05 431.509L426.5 435.059L425.44 436.769L424.02 438.479L422.23 440.179L420.09 441.879L415.95 444.719L411.56 447.379L406.91 449.849L402.01 452.139L392.13 456.209L383.76 459.129L373.8 461.959L363.51 464.439L352.87 466.569L341.89 468.349L332.22 469.449L322.01 470.039L299.25 470.119L288.07 469.699L276.45 468.499L264.13 466.519L250.61 463.669L241.23 461.209L231.87 458.209L222.54 454.669L213.22 450.579L207.36 447.679L202.34 444.839L198.01 441.969L194.35 439.059L191.45 436.179L189.28 433.269L187.88 430.409L187.23 427.619L187.1 425.159L187.22 422.919L187.59 420.899L188.22 419.099L191.55 412.339L192.99 409.939L194.29 408.189L203.59 397.249L205.93 394.269L207.91 391.359L209.9 387.869L211.77 383.909L211.82 383.509L211.64 383.159L208.76 379.949L206.15 376.559L203.82 372.999L201.89 369.449L200.39 365.949L199.33 362.589L198.69 359.249L198.52 356.139L198.96 352.089L200.13 348.159L201.96 344.539L204.44 341.269L204.58 341.119L205.12 340.349L205.26 339.619L205.13 339.139L201.93 331.699L199.34 324.179L197.37 316.579L196 308.889L195.63 305.809L195.08 298.539L194.96 291.179L195.25 283.729L195.96 276.179L196.68 271.319L197.65 266.459L198.89 261.589L200.38 256.709L203.67 247.899L207.53 239.509L211.98 231.529L216.99 223.969L220.98 218.759L224.2 214.979L227.62 211.349L231.21 207.859L235 204.519L240.25 200.339L245.67 196.479L251.26 192.939L257.02 189.729L265.62 185.679L274.57 182.299L283.87 179.599L293.53 177.579L300.41 176.779L307.35 176.019L307.7 175.839L307.76 175.449L307.55 174.509L307.24 172.789L305.89 143.459L305.12 114.379V114.359L304.82 113.709L304.15 113.469L291.74 114.099L291.04 114.289L290.47 114.729L290.13 115.369L290.06 116.089L290.08 116.199L291.12 123.159L291.61 129.819L292.09 138.359L292.21 143.049L291.9 146.989L291.83 147.179L291.4 147.439L290.95 147.229L290.47 146.309L290.17 145.119L286.05 116.039L285.86 115.489L285.48 115.059L284.95 114.809L284.37 114.779H284.35L271.48 116.959L270.86 117.159L270.45 117.509L270.25 118.019L270.27 118.669L273.99 140.629L274 141.419L273.77 142.169L273.46 142.809L273.06 143.459L272.71 143.649L272.42 143.409L272.17 142.749L265.86 119.039L265.46 118.449L265.15 118.429L259.17 119.809L255.88 120.729L252.31 121.879L251.41 122.709L251.09 123.389L250.95 124.179L251.21 126.119L257.08 147.129L257.07 147.969L256.67 149.159L256.4 149.449L256.07 149.249L254.75 147.309L253.7 144.859L247.5 126.519L246.82 125.179L245.88 124.409L244.68 124.219L243.22 124.619L233.14 129.009L232.55 129.419L232.15 130.019L232.01 130.719L232.15 131.419L237.95 146.259L243.66 161.699L244.21 163.899V165.919L243.98 166.509L243.58 166.019L228.14 132.829L227.83 132.399L227.38 132.109L226.86 132.009L226.33 132.109L220.99 134.649L215.9 137.929L215.36 138.739L215.48 139.709L217.3 143.369L220.51 149.569L225.57 158.479L230.36 167.489L234.86 176.589L239.09 185.799L240.01 188.149L240.06 189.089L239.25 188.609L237.58 186.699L234.89 182.949L208.61 144.159L208 143.469L207.32 143.149L206.56 143.189L205.74 143.589L196.73 149.669L196.31 150.319L196.47 151.079L218.79 183.569L218.85 183.759L218.55 184.089L217.98 184.059L217.35 183.779L216.95 183.539L216.63 183.219L192.79 153.439L192.78 153.429L192.22 153.129L191.61 153.329L180.9 162.569L180.84 162.619L180.57 163.029L180.48 163.519L180.59 163.999L180.89 164.399L182.51 165.869L186.08 169.369L189.48 173.069L192.7 176.949L195.75 181.029L196.38 182.109L196.39 182.739L195.82 182.899L194.69 182.649L193.36 181.459L178.83 167.179L178.18 166.679L177.52 166.509L176.84 166.649L176.16 167.119L166.53 175.969L166.16 176.419L166.04 176.869L166.17 177.319L166.55 177.769L183.7 192.929L184.32 193.639L184.44 194.249L184.21 194.629L183.71 194.959L183.27 195.149L182.53 195.249L181.84 194.939L164.28 180.539L163.68 180.309L163.13 180.659L153.63 192.249L153.61 192.269L153.5 192.699L153.74 193.079L178.06 210.339L178.73 211.059L179.08 211.969L179.17 212.489L178.98 213.069L178.4 213.239L178.18 213.149L151.39 196.229L151.07 196.179L150.81 196.359L144.6 206.189L144.28 206.879L144.22 207.539L144.4 208.189L144.83 208.819L145.8 209.659L147.26 210.559L158.4 216.809L169.93 223.559L181.83 230.829L194.12 238.599L195.59 239.749L195.91 240.709L195.8 241.249L195.22 241.379L194.15 241.039L177.27 233.529L159.55 224.789L140.8 215.269L140.11 215.069L139.39 215.169L138.77 215.539L138.34 216.119L138.31 216.199L134.27 226.269L134.16 226.839L134.28 227.409L134.61 227.889L135.1 228.209L163.4 239.959L170.39 243.139L177.7 246.919L179.19 247.959L177.4 247.659L169.61 245.229L152.09 238.959L134.02 232.049L133.98 232.039L133.01 231.879L132.06 232.109L131.26 232.699L130.76 233.539L126.61 245.249L126.65 245.929L127.17 246.379L127.2 246.389L139.62 250.069L152.85 254.509L153.07 254.599L153.96 255.439L154.02 255.589L153.92 256.019L153.51 256.189L150.05 255.769L146.55 255.119L126.36 250.069L125.6 249.989L125 250.159L124.56 250.599L124.28 251.289L121.2 263.309L121.16 263.979L121.39 264.609L121.83 265.099L122.44 265.389H122.45L147.11 271.129L148.13 271.479L148.51 271.909L148.22 272.439L147.23 273.059L145.75 273.319L143.44 273.039L132.7 271.049L121.41 269.259L120.75 269.289L120.16 269.569L119.71 270.059L119.48 270.679L117.46 283.529V283.559L117.69 284.409L118.46 284.839L134.41 286.779L149.14 288.999L151.44 289.629L152.13 290.199L152.29 290.629L151.88 290.949L150.86 291.109L144 291.099L120.46 289.349L117.55 289.419L116.85 289.799L116.5 290.519L116.09 296.259L116.41 302.289L116.63 302.749L117.09 302.959L130.71 303.949L143.74 304.349L152.33 304.839L170.98 306.249L174.13 306.739L177.02 307.669L177.28 307.879L177 308.059L173.99 308.629L143.39 310.319L117.15 311.359H117.14L116.27 311.769L115.94 312.669L116.52 323.979L116.64 324.579L116.92 324.999L117.37 325.219L117.99 325.259L158.22 322.169L162.14 322.069L165.74 322.309L166.52 322.629L165.91 323.219L164.08 323.849L161.48 324.089L159.64 324.229L143.47 326.649L130.9 328.009L118.78 329.569L118.14 329.799L117.64 330.249L117.35 330.859L117.33 331.539V331.559L119.46 344.129L119.98 344.949L120.93 345.149L120.97 345.139L132.85 342.699L138.23 341.859L143.24 341.279L147.26 341.069L149.02 341.289L149.63 341.599L149.08 342.029L147.37 342.549L120.97 349.169L120.6 349.439L120.53 349.899L123.36 362.429L123.37 362.449L123.71 363.189L124.31 363.739L125.08 364.019L125.89 363.979L147.91 358.379L150.01 358.079L151.81 358.169L152.16 358.479L152.05 358.929L151.64 359.289L150.72 359.879L149.67 360.299L138.34 363.969L125.93 368.459L125.61 368.719L125.62 369.119L130.44 382.219L131.04 382.969L132 382.949L163.55 371.349L164.35 371.499L165.03 372.339L165.04 372.379L164.81 373.049L164.15 373.559L134.07 386.639L133.33 387.369L133.28 388.389L134.47 391.449L135.79 394.249L137.24 396.769L138.81 399.019L139.42 399.609L140.08 399.889L140.81 399.849L141.58 399.479L146.85 396.299L152.39 393.509L171.08 384.819L190.9 375.279L195.39 373.389L196.94 372.729L199.84 371.239L200.46 371.259L200.88 371.559L201.06 371.819L200.89 372.109L196.01 375.639L147.86 403.999L145.52 405.529L143.52 407.199L143.22 407.809L143.38 408.459L149.79 417.969L150.25 418.469L150.76 418.709L151.32 418.689L151.93 418.399L181.72 398.729L183.12 398.289L183.94 398.079L184.36 398.199L184.45 398.619L184.31 398.819L154.11 422.049L153.69 422.479L153.52 422.939L153.58 423.419L153.88 423.939L161.88 433.929L162.49 434.499L163.13 434.719L163.79 434.589L164.47 434.099L171.35 428.089L176.15 424.459L181.16 421.089L181.72 421.009L182.15 421.389L182.18 421.489L182.24 421.759V421.939L182.15 422.079L166.54 437.179L166.51 437.209L166.24 437.659L166.17 438.199L166.32 438.749L166.67 439.209L171.18 443.629L175.38 448.269L177.57 449.649L178 449.719L178.36 449.489L181.78 445.159L182.99 443.799L184.01 443.099L185.77 442.589L186.34 442.609L186.7 442.809L186.86 443.189L186.81 443.739L186.12 445.369L185.2 446.669L183.57 448.459L181.05 451.709L180.81 452.229L180.77 452.809L180.95 453.359L181.32 453.799L192.06 462.609L192.48 462.759L192.84 462.519L196.86 457.879L201.59 453.469L202.14 453.179L202.86 453.089L202.99 453.109L203.3 453.399L203.25 453.819L196.26 464.889L196.13 465.409L196.47 465.819L209.13 473.819L209.63 474.009L210.17 473.999L210.66 473.779L211.03 473.389L215.02 467.069L215.72 466.389L216.65 466.169H217.19L217.88 466.259L218.26 466.539L218.33 467.009L218.09 467.659L213.6 476.039L213.57 476.389L213.79 476.659L227.36 483.919L227.94 483.969L228.38 483.599L234.97 471.109L235.4 470.579L236 470.239L236.6 470.199L237.06 470.449L237.26 470.879L237.32 471.339L237.21 472.309L232.41 484.299L232.29 484.939L232.42 485.579L232.79 486.119L233.34 486.479L246.12 491.589L246.67 491.719L247.12 491.649L247.75 490.899L252.38 479.359L252.97 478.859L253.72 479.079L253.9 479.349L254.19 481.209L253.88 483.869L252.97 487.389L251.45 491.739L251.43 491.809L251.37 492.379L251.54 492.939L251.92 493.369L252.44 493.629L265.97 497.099L266.72 497.039L267.12 496.409L270.85 481.729L271.29 480.719L271.91 480.219L272.72 480.229L273.19 480.569L273.35 481.119L272.6 488.639L271.99 492.029L271.22 495.179L271.05 496.509L271.36 497.519L271.98 498.119L272.94 498.499L279.43 499.709L286.3 500.219L286.84 500.019L287.09 499.499L288.04 491.699L289.65 483.319L289.87 482.729L290.22 482.329L290.78 482.099H291.51L292.02 482.279L292.42 482.629L292.66 483.109L292.7 483.649L290.86 499.799L290.98 500.409L291.51 500.729L295.1 501.469L298.6 501.919L302.02 502.079L305.36 501.939L305.85 501.719L306.09 501.229L306.91 492.819L307.34 484.339L307.61 482.759L308.31 481.799L308.91 481.539L309.64 481.469L310.35 481.729L310.6 482.419L311.52 500.509L311.83 501.379L312.62 501.819L314.2 502.059L315.76 502.049L316.43 501.959L322.04 501.279L327.3 501.079L327.61 500.979L327.68 500.659L326.15 487.129L326.17 486.569L326.36 486.209L326.74 486.039L327.29 486.069L327.91 486.399L328.88 487.409L329.3 488.129L331.38 499.399L331.57 499.879L331.93 500.259L332.4 500.469L332.92 500.479L346.44 498.179L346.9 497.889L347.02 497.369L344.47 482.319L344.46 481.749L344.63 481.329L345.01 481.069L345.57 480.969L346.23 481.119L346.97 481.689L347.39 482.539L350.63 495.439L350.92 496.159L351.38 496.619L352 496.809L352.79 496.729L364.99 493.669H365L365.57 493.389L365.99 492.909L366.19 492.309L366.15 491.679L364.36 484.829L363.44 480.429L363.12 476.799L363.37 476.319L363.9 476.239L364.07 476.329L365.12 477.439L365.92 478.989L370.1 491.249V491.259L370.53 491.729L371.17 491.759L385.83 486.369L386.12 486.139L386.11 485.779L382.24 475.519L382.21 475.309L382.42 473.709L382.61 473.379L383.01 473.099L383.49 473.029L383.95 473.209L384.28 473.569L389.57 483.489L390.09 483.929L390.77 483.869L402.12 478.249L403.39 477.419L404.07 476.389L404.15 475.099L403.58 473.589L401.68 469.979L400.53 467.439L400.52 467.009L400.94 466.879L401.11 466.889L402.75 467.409L404.34 468.649L405.87 470.549L407.58 473.399L407.72 473.649L408.42 474.279L409.33 474.029L421.29 465.949L421.65 465.589L421.85 465.109V464.599L421.65 464.129L421.64 464.119L418.16 458.929L417.47 457.539L417.2 456.129L417.19 455.819L417.29 455.469L417.64 455.209L418.18 455.169L418.76 455.369L419.25 455.759L424.52 461.689L425.03 462.079L425.65 462.239L426.28 462.159L426.84 461.849L436.57 453.459L436.99 452.969L437.17 452.469L437.09 451.929L436.76 451.369L431.47 444.769L431.25 444.309L431.27 443.799L431.5 443.359L431.92 443.059L432.23 442.989L433.63 443.329L435.26 444.519L437.1 446.569L438.84 449.089L438.89 449.159L439.29 449.549L439.82 449.749L440.38 449.719L440.88 449.469L443.38 447.389L445.69 445.169L447.83 442.829L449.79 440.349L450.69 439.079L451.19 438.049L451.24 437.109L451.02 436.509L450.58 435.959L441.34 426.619L441.04 425.919L441.52 425.339L441.73 425.209L442.74 424.959L443.7 425.369L454.4 434.689L454.58 434.769L454.76 434.659L463.87 423.539L464.03 423.129L463.79 422.749L443.76 406.319L443.23 405.529L443.39 404.649L443.41 404.609L443.88 404.149L444.7 404.369L465.89 419.029L465.9 419.039L466.63 419.179L467.24 418.749L473.94 408.139L474.18 407.599L474.19 407.119L473.97 406.699L473.51 406.329L456.21 396.169L442.91 388.179L425.6 377.259L420.53 374.029L419.95 373.259L419.65 372.789L419.61 372.339L419.93 372.079L420.12 372.109L432.01 377.259L438.87 380.419L473.66 397.869L475.83 399.229L476.86 399.929L477.47 400.049L478.01 399.739L479.76 397.409L481.26 395.009L482.52 392.509L483.52 389.939L484 388.379V387.949L483.74 387.629L481.54 386.159L479.8 385.259L469.77 380.949L459.8 376.379L449.91 371.529L440.08 366.409L439.95 366.279L439.97 366.089L440.1 365.759L440.4 365.449L440.82 365.439L460.18 372.859L478.83 380.499L486.19 382.919L486.62 382.909L486.89 382.589L489.37 376.229L491.14 370.749L491.3 369.459L490.99 368.519L490.02 367.849L487.53 367.159L484.22 366.209L466.85 360.039L466.19 359.559L465.95 358.789L465.97 358.689L466.31 358.389L467.06 358.249H469.46L471.78 358.609L472.86 358.909L483.65 362.219L493 364.839H493.01L493.45 364.779L493.72 364.409L497.08 349.989L497.04 349.599L496.71 349.389L468.98 342.279L468.57 342.059L468.29 341.679L468.15 341.179L468.23 340.799L468.28 340.719L469.01 339.949L483.21 342.529L497.4 345.879L497.43 345.889L497.83 345.799L498.03 345.449L499.03 338.079L500.13 331.989L500.18 331.309L500.02 330.739L499.2 329.989L497.71 329.599L489.61 328.499L481.35 327.169L472.93 325.579L464.35 323.759L463.69 323.369L464.11 322.719L464.45 322.449L465.21 322.039L466.09 321.979L499.35 325.759L500.12 325.729L500.66 325.459L500.99 324.949L501.1 324.189V312.419L500.8 311.489L499.89 311.119L479.29 310.079L468.35 309.579L459.5 308.939L439.74 306.989L438.97 306.699L439.59 306.149L440.94 305.599L442.23 305.359L468.28 303.969L500.67 302.879L501.2 302.639L501.4 302.099L500.82 290.769L500.67 290.209L500.31 289.769L499.44 289.239L498.52 288.989L497.5 288.979L478.06 290.619L453.72 292.209L451.22 292.249L449.35 292.009L449.01 291.819L449.3 291.569L451.88 290.549L454.41 289.999L461.68 288.989L469.83 287.899L499.04 284.769H499.07L499.77 284.349L499.95 283.549L497.82 270.979L497.57 270.329L497.1 269.829L496.47 269.549L495.78 269.529L470.06 273.879L469.33 273.759L469.19 273.029L469.5 272.429L470.23 271.729L471.25 271.089L472.52 270.639L495.12 265.539L495.67 265.289L496.08 264.859L496.3 264.289L496.27 263.699V263.679L492.91 250.309L492.73 250.069L492.44 250.029L467.04 256.399L466.56 256.359L465.56 255.819L465.21 255.409L465.42 254.439L465.83 254.009L466.47 253.719L490.16 246.619L490.75 246.349L491.09 245.959L491.2 245.439L491.07 244.799L486.88 233.379L486.49 232.739L485.89 232.299L485.16 232.109L484.42 232.199L468.4 237.539L455.45 242.059L454.05 242.249L452.42 241.889L452.13 241.649L452.28 241.289L453.84 240.289L457.11 238.759L469.95 233.389L481.4 228.999L483.49 228.099L483.9 227.759L484.15 227.279L484.2 226.749L484.04 226.239L477.97 214.849L477.66 214.549L477.23 214.609L464.65 220.749L449.49 227.829L438.79 232.619L427.68 237.309L425.18 238.249L424.24 238.349L424.85 237.629L427.03 236.079L437.95 229.029L449.39 222.019L461.37 215.059L473.87 208.149L474.03 207.979L473.98 207.749L466.99 196.399L466.65 196.109L466.22 196.209L432.58 216.899L432.02 217.049L432 216.459L432.12 216.099L432.78 215.109L435.08 213.159L439.75 209.659L455.23 198.619L458.85 196.299L460.73 194.969L462.29 193.589L462.82 192.819L463.03 191.909L462.91 190.979L462.47 190.159L454.58 180.299L454.23 180.069L453.84 180.209L445.75 186.889L440.77 190.799L435.12 194.729L434.27 195.149L433.66 195.109L433.34 194.749L433.19 194.079L433.26 193.609L433.52 193.219L450.64 177.499L451 176.689L450.66 175.869L450.62 175.829L447.95 173.359L445.54 170.839L443.39 168.269L441.49 165.649L441.43 165.569L440.79 165.269L440.14 165.549L436.36 169.509L432.4 173.349L428.28 177.039L423.99 180.609L421.58 182.129H421.21L420.98 181.849L420.97 181.739L421.24 181.109L426.35 174.739L432.61 168.159L433.73 166.979L436.85 162.679L436.99 162.199L436.72 161.789L427.18 153.959L426.5 153.549L425.84 153.439L425.2 153.619L424.57 154.099L420.14 159.009L403.59 178.219L402.9 178.919L402.05 179.119L402.28 178.269L406.43 171.299L411.14 164.749L421.84 150.559L421.91 150.369L421.78 150.189L411.22 142.689L410.6 142.419L409.93 142.409L409.3 142.669L408.83 143.149L408.79 143.219L401.98 154.339L393.68 166.819L384.39 180.129L376.12 191.549L375.88 191.749L375.59 191.789L375.43 191.749L375.28 191.669L375.14 191.469L375.16 191.219L375.49 190.329L376.96 186.599L378.24 184.029L383.79 173.879L384.95 171.589L388.26 165.209L393.04 156.569L399.96 143.829L401.36 141.459L402.9 138.839L402.95 138.259L402.58 137.809L390.92 131.569L390.36 131.509L389.92 131.849L387.79 135.879L385.09 141.809L382.95 146.519L377.11 158.529L375.02 162.419L373.94 163.779L373.38 164.129L373.33 163.469L373.78 161.799L379.36 145.919L385.9 129.619V129.339L385.71 129.149L374.43 124.629L372.91 124.259L371.65 124.469L370.64 125.259L369.89 126.609L364.07 142.419L361.38 147.629L361.03 147.949L360.57 147.889L359.77 147.319L359.66 146.889L359.81 146.079L363.28 134.509L366.89 123.729L366.91 123.659L366.97 123.039L366.78 122.449L366.38 121.979L365.82 121.709L352.7 118.339L352.15 118.279L351.73 118.419L351.27 119.249L350.11 124.819L348.71 130.389L347.07 135.989L345.2 141.589L344.71 142.309L344.13 142.449L344.03 142.379L343.48 141.789L343.24 141.369L343.21 140.879L345.06 131.029L347.04 121.619L347.16 117.769L346.97 117.269L346.49 117.009L333.88 115.019L332.83 115.239L332.19 116.109L331.61 118.889L327.48 143.849L325.94 150.499L325.77 150.999L325.22 151.789L324.68 152.579L324.66 152.629L324.41 152.999L324.3 152.559ZM393.03 237.729L395.6 242.769L398.09 248.339L408.51 275.759L410.5 281.729L411.99 287.719L412.99 293.729L413.5 299.759L413.47 306.639L412.8 313.549L411.5 320.489L409.55 327.449L407.06 333.799L403.69 340.239L399.43 346.769L394.28 353.399L389.76 358.219L382.3 365.379L382.25 365.789L382.42 366.049L382.48 366.089L382.53 366.069L386.23 363.359L389.62 360.589L392.72 357.779L395.52 354.919L400.06 349.569L404.89 342.769L409.11 335.499L412.73 327.759L415.75 319.549L417.33 313.689L418.69 306.569L419.74 299.169L420.22 293.369L420.31 288.309L420.19 283.319L419.85 278.399L419.3 273.559L418.54 268.779L417.56 264.079L416.36 259.449L414.95 254.899L412.06 247.309L408.55 239.929L406.21 235.749L403.61 231.619L400.75 227.559L397.63 223.549L391.48 216.569L384.94 210.219L378 204.479L370.66 199.369L363.73 195.309L356.48 191.749L348.92 188.689L341.03 186.129L335.12 184.659L328.73 183.479L321.84 182.609L314.46 182.039H309.35L302.7 182.529L295.55 183.319L290.93 184.019L285.09 185.319L279.35 186.929L274.53 188.549L269.79 190.389L265.11 192.449L260.51 194.739L255.97 197.259L251.5 199.999L247.11 202.959L242.78 206.149L235.75 212.029L229.41 218.339L223.75 225.079L221.17 228.609L218.76 232.249L217.95 233.569L214.33 239.749L211.36 245.219L209.06 249.979L207.42 254.029L205.32 260.359L203.71 266.149L202.57 271.409L201.92 276.119L201.07 286.259L200.76 292.159L200.85 297.339L201.2 302.469L201.81 307.549L202.66 312.579L204.36 319.769L206.58 326.869L209.35 333.859L212.64 340.739L215.69 346.009L219.12 350.839L222.92 355.229L227.1 359.179L230.58 361.929L234.2 364.319L238.37 366.619L243.08 368.819L248.34 370.919L255.52 373.389L262.63 375.439L269.54 377.009L276.31 378.149L282.91 378.819L289.3 379.049L295.58 378.809L301.6 378.109L309.27 376.779L310.19 376.459L309.26 376.189L301.49 375.059L295.41 373.919L291.05 372.729L284.85 370.569L279.14 368.569L278.82 368.229L278.95 367.779L279.14 367.659L280.24 367.319L280.52 367.309L283.81 367.849L287.24 368.089L290.82 368.029L294.53 367.659L298.42 366.839L302.06 365.479L304.14 364.399L306.14 363.119L308.04 361.649L309.85 359.979L315.25 354.529L325.99 343.789L333.58 336.729L338.09 332.729L345.88 325.579L353.67 318.139L370.53 301.159L374.27 297.059L377.9 292.609L381.42 287.829L384.82 282.699L387.89 277.299L390.33 271.809L392.16 266.219L393.35 260.539L393.95 254.079L393.73 248.699L392.69 240.749L392.28 237.979L392.31 236.829L393.03 237.729ZM403.37 286.956L403.142 285.191L402.256 283.648L400.848 282.561L399.13 282.096L398.133 282.028L396.368 282.256L394.825 283.141L393.738 284.55L393.273 286.267L393.13 288.363L393.358 290.127L394.243 291.67L395.652 292.757L397.37 293.222L398.367 293.29L400.132 293.063L401.675 292.177L402.762 290.768L403.227 289.051L403.37 286.956ZM381.33 338.509L383.28 338.419L384.91 337.799L386.14 336.749L388.1 334.269L389.84 331.689L391.34 329.019L392.62 326.249L393.7 323.329L394.53 320.309L395.64 315.139L396.18 311.459V310.049L395.96 309.429L395.69 309.199L395.4 309.319L395.07 309.759L391.53 316.169L389.79 318.819L387.41 321.449L384.37 324.119L379.97 327.439L378.32 328.819L377.12 330.239L376.34 331.729L376.11 333.079L376.42 335.189L377.3 336.789L378.04 337.449L378.96 337.959L381.33 338.509ZM364.78 341.169L359.89 342.059L356.02 343.339L353.61 344.589L351.58 346.039L349.94 347.699L348.67 349.569L347.79 351.619L347.29 353.869L347.15 356.319L347.39 358.979L347.88 360.689L348.72 361.989L349.85 362.909L351.21 363.519L352.83 363.849L354.79 363.919L357.02 363.679L359.43 363.159L361.99 362.339L364.3 361.349L366.74 359.839L368.53 358.239L370.09 356.339L371.41 354.129L372.51 351.619L373.1 349.359L373.16 347.139L372.56 344.549L371.22 342.019L370.45 341.449L367.92 341.019L364.78 341.169ZM415.64 345.829L415.14 345.169L414.47 344.509L413.84 344.319L413.26 344.619L412.72 345.399L410.54 349.339L408.06 353.069L405.02 356.909L401.62 360.499L397.88 363.829L393.78 366.909L387.97 370.619L383.83 372.899L379.57 374.979L375.18 376.849L370.67 378.509L360.8 381.539L350.95 383.919L341.12 385.629L331.3 386.679L317.05 387.309L301.34 387.229L293.17 386.819L285.6 386.109L278.04 385.079L270.51 383.719L263 382.049L255.16 379.889L247.67 377.349L240.53 374.409L233.74 371.079L229.42 368.579L225.35 365.819L221.54 362.809L217.99 359.529L214.97 356.329L212.16 352.899L209.56 349.269L207.18 345.419L206.86 345.179L206.47 345.259L206.43 345.289L205.46 346.369L204.89 347.559L204.74 348.469L204.78 349.439L205.46 351.549L206.93 354.159L209.32 357.169L214.52 362.229L218.35 365.409L222.39 368.359L228.13 371.789L235.82 375.559L244.34 379.329L249.84 381.539L255.47 383.419L261.37 385.149L267.56 386.719L274.02 388.129L280.2 389.259L286.51 390.179L292.96 390.889L299.55 391.389L306.27 391.679L313.12 391.769L320.11 391.639L327.24 391.299L336.19 390.509L344.95 389.259L353.64 387.549L362.03 385.399L370.14 382.809L377.86 379.839L385.3 376.429L392.27 372.649L396.17 370.179L399.87 367.449L404.37 363.509L408.53 359.149L412.35 354.349L415.82 349.119L416.16 348.309L416.24 347.449L416.06 346.589L415.64 345.829ZM330.35 361.219L329.89 361.019L328.53 360.889L326.96 361.379L325.34 362.449L323.91 363.889L323.02 364.999L319.87 369.129L318.32 371.729L318.27 372.189L318.49 372.589L318.52 372.609L320.09 373.629L322.15 374.139L324.5 374.069L326.89 373.479L329.25 372.389L331.3 370.899L332.84 369.129L333.66 367.339L333.85 366.079L333.72 364.899L333.3 363.869L332.6 362.909L331.62 362.029L330.35 361.219ZM308.07 413.209L313.67 413.179L325.88 412.579L338.07 411.259L350.25 409.219L362.41 406.449L370.45 404.109L378.3 401.299L385.32 398.309L392.18 394.909L392.19 394.889L392.14 394.619V394.599L391.91 394.489L382.3 397.659L372.32 400.439L362.13 402.779L351.64 404.699L340.96 406.179L330.05 407.229L319.15 407.809L308.11 407.949L297.08 407.639L286.19 406.879L275.29 405.659L264.64 404.009L254.18 401.919L244.03 399.419L234.09 396.479L224.54 393.149L224.31 393.259V393.279L224.25 393.549L224.26 393.569L231.06 397.079L238.03 400.179L245.84 403.119L253.84 405.579L265.96 408.549L278.1 410.789L290.27 412.299L302.47 413.089L308.07 413.209ZM197.27 435.579L197.77 436.119L197.97 435.419L198.16 429.069L198.37 426.809L198.89 424.419L199.72 421.889L200.85 419.219L202.82 415.419L205.23 411.419L208.09 407.209L211.4 402.809L212.78 400.789L214.13 398.309L214.33 397.729L214.27 397.389L213.94 397.289L213.35 397.429L211.84 398.239L210.05 399.669L205.75 403.899L201.98 408.299L198.72 412.859L195.98 417.599L195.24 419.349L194.62 421.489L194.2 423.789L194.02 425.989L194.08 428.039L194.34 429.799L194.81 431.359L195.53 432.729L197.27 435.579ZM396 408.049L397.62 412.869L398.91 417.719L399.87 422.589L400.49 427.489L400.56 431.509L400.02 435.739L398.66 443.889L398.73 444.109L398.96 444.179L399.03 444.159L401.09 442.979L402.98 441.659L404.68 440.199L406.21 438.599L407.04 437.449L407.94 435.339L408.31 432.889L408.11 430.059L407.37 426.969L406.1 423.319L404.61 419.769L402.88 416.309L400.93 412.959L398.75 409.709L396.34 406.559L395.53 405.879L395.46 406.239L395.65 407.089L396 408.049Z" fill="white"/>
<path d="M540.64 194.31L546.05 205.83L550.9 217.57L553.64 225.01L556.17 232.54L556.16 232.94L555.82 233.15L555.47 233.23L555.31 233.21L555.21 233.09L550.36 221.34L544.57 208.42L538.37 195.47L531.53 182.83L524.48 170.56L517.83 159.73L517.78 159.58L517.87 159.44L518.14 159.2L518.5 159.05L518.83 159.28L523.47 165.79L527.91 172.43L534.53 183.21L540.64 194.31Z" fill="white"/>
<path d="M79.2899 196.85L73.3099 209.66L67.7499 222.41L63.0799 234.02L62.9899 234.14L62.8299 234.16L62.4799 234.08L62.1399 233.88L62.1299 233.49L64.5399 226.06L67.1699 218.71L71.8299 207.12L77.0399 195.74L82.9499 184.76L89.3599 174.1L93.6599 167.52L98.1699 161.07L98.4899 160.84L98.8499 160.99L99.1199 161.22L99.1999 161.36L99.1599 161.51L92.7199 172.23L85.8999 184.36L79.2899 196.85Z" fill="white"/>
<path d="M334.11 193.66L333.12 193.91L332.17 194.05L327.6 194.02L323.56 194.3L319.89 194.91L316.45 195.86L312.08 197.68L309.18 199.85L304.46 204.34L299.6 209.27L289.38 219.5L281.49 226.86L269.72 237.88L260.07 246.94L248.52 257.4L241.29 264.78L234.09 273.24L230.61 277.95L227.59 282.82L225.02 287.86L222.9 293.05L221.58 297.17L218.91 307.41L216.81 317.47L216.47 318.35L215.68 318.26L215.4 317.53L214.95 304.68L213.87 296.81L213.18 293.73L212.39 291.23L209.48 283.05L208.33 278.56L207.92 274.04L208.19 268.23L208.92 262.58L210.13 257.11L211.8 251.81L213.04 248.67L216.12 242.08L219.57 235.79L223.41 229.81L227.63 224.13L231.37 219.7L235.36 215.48L239.6 211.46L244.1 207.65L247.97 204.75L252.1 202.05L256.48 199.56L261.12 197.28L268.32 194.3L275.86 191.82L283.73 189.81L291.93 188.3L299.13 187.44L306.04 187.1L312.67 187.28L319.03 187.97L322.79 188.72L326.56 189.82L330.36 191.26L334.18 193.06L334.53 193.4L334.11 193.66ZM303.27 190.88L299.71 191.38L296.42 192.26L293.42 193.54L290.69 195.2L289.11 196.68L288.31 198.29L288.1 199.82L288.17 201.14L288.46 202.47L288.7 202.87L289.14 203.06L291.79 203.15L294.11 202.51L295.67 201.53L297.03 200.12L301.03 195.17L304.76 190.9L304.81 190.63L304.59 190.47L304.42 190.52L304.21 190.65L303.27 190.88ZM262.88 219.77L265.4 217.47L267.09 215.41L268.05 213.48L268.33 211.6V211.5L268.32 211.42L268.13 210.77L267.7 210.25L267.1 209.95L266.42 209.9L263.55 210.47L260.82 211.37L257.6 212.96L254.59 215.07L253.27 216.08L252.11 217.29L251.34 218.79L251.11 220.34L251.45 221.61L251.94 222.27L252.67 222.84L254.85 223.91L255.71 224.1L256.59 224.09L257.94 223.58L262.88 219.77ZM227.77 250.89L230.76 246.35L234.26 241.83L236.87 239.08L241.13 235.3L245.69 231.18L245.95 230.81L246.06 230.31L245.83 229.12L245.09 227.75L244.56 227.24L243.4 226.93L241.82 227.26L239.93 228.26L238.24 229.62L236.89 231.1L234.6 234.08L232.62 237.3L230.91 240.86L229.48 244.68L228.26 247.91L226.99 250.59L226.96 250.72L227.04 250.82L227.28 250.99L227.55 251.07L227.77 250.89ZM217.419 276.76L218.269 277.067L219.185 277.167L220.132 277.057L221.072 276.741L222.793 275.546L224.086 273.764L224.753 271.666L224.694 269.571L224.39 268.626L223.917 267.799L223.293 267.122L222.541 266.62L221.691 266.312L220.775 266.212L219.828 266.322L218.888 266.638L217.167 267.833L215.874 269.616L215.207 271.714L215.266 273.808L215.569 274.753L216.043 275.58L216.667 276.257L217.419 276.76Z" fill="white"/>
<path d="M380.97 214.429L384.33 218.099L385.29 219.349L385.94 220.569L386.28 221.749L386.31 222.889L386.08 223.859L385.62 224.789L384.01 226.579L383.22 227.149L381.18 227.979L378.78 228.209L377.75 228.089L376.54 227.669L375.46 226.989L374.44 226.039L373.6 224.889L372.9 223.509L372.43 222.039L372.18 220.559V219.109L372.55 216.629L373.22 214.249L374.07 212.199L374.62 211.379L375.3 210.939L376.07 210.869L376.94 211.129L378.51 212.219L380.97 214.429Z" fill="white"/>
<path d="M246.23 266.85L253.26 259.49L261.91 251.29L274.54 239.95L285.65 230.28L288.95 228.04L289.03 228.02L289.12 228.06L289.27 228.25L289.29 228.36L289.23 228.47L268.54 249.33L257.44 260.07L249.04 267.3L240.43 274L239.81 274.28L240 273.63L241.25 271.76L242.93 270.04L246.23 266.85Z" fill="white"/>
<path d="M370.93 247.76L363.62 249.02L360.59 249.83L358.04 251.18L357.04 252.35L356.35 254.23L354.21 264.84L353.95 265.7L353.57 266.25L353.38 266.36L352.77 266.31L352.46 265.78L352.14 262.53L351.59 259.37L350.79 256.3L349.77 253.33L349.33 252.26L348.56 251.02L347.1 249.91L345.09 249.28L336.67 247.82L336.32 247.64L336.57 247.34L337.72 246.69L338.74 246.33L348.12 244.12L348.92 243.67L349.43 242.91L351.23 237.19L352.45 231.09L353.27 228.65L353.75 228.06L354.03 228.77L355.08 234.61L356.78 241.33L357.32 242.41L357.99 243.05L358.89 243.51L364.91 245.46L369.69 246.37L371.09 247.13L371.17 247.23L371.19 247.56L370.93 247.76Z" fill="white"/>
<path d="M306.6 274.36L306.73 274.08L306.72 273.65L306.48 273.26L306.06 272.99L305.57 272.91L296.45 273.06L287.61 272.69L279.05 271.79L270.78 270.36L268.9 270.17L267.4 270.07L267.11 269.86L267.39 269.65L269.9 268.88L272.86 268.29L280.97 267.17L288.43 266.44L295.23 266.08L301.38 266.11L303.15 266.3L304.64 266.67L305.49 266.8L306.11 266.61L306.51 266.1L306.69 265.27L306.92 262.25L307.97 253.46L309.55 244.72L309.96 241.28L310.27 239.48L310.73 238.29L311.2 237.84L311.44 238.44L314.52 265.64L314.79 266.2L315.35 266.47L341.95 269.49L342.43 269.72L342.2 270.2L341.68 270.53L340.86 270.75L334.15 271.76L327.63 272.5L321.29 272.99L315.15 273.22L314.57 273.43L314.35 274.01L313.82 282.78L312.96 291.68L311.76 300.71L310.24 309.87L310 310.9L309.77 311.24L309.55 310.89L309.35 309.86L307.81 297.73L306.56 284.58L306.37 280.05L306.48 275.35L306.6 274.36Z" fill="white"/>
<path d="M553.61 295.019L562.82 263.929L563.06 263.359L563.35 263.149L563.68 263.279L564.06 263.759L565.3 266.749L567.39 273.039L570.63 283.419L573.66 293.869L573.89 294.269L574.29 294.499L581.08 296.559L588.06 298.919L595.21 301.549L602.55 304.479L603.21 304.999L602.51 305.459L576.11 313.519L575.14 313.939L574.37 314.539L573.78 315.329L573.38 316.299L569.48 329.429L565.34 342.469L564.53 344.699L563.84 345.969L563.55 346.159L563.35 345.879L553.98 315.189L553.73 314.759L553.31 314.489L528.47 305.679L528.07 305.229L528.22 304.649L528.43 304.499L535.31 301.639L541.7 299.209L547.6 297.189L553.02 295.599L553.39 295.389L553.61 295.019ZM562.48 310.349L563.01 314.209L563.19 319.339L563.34 321.279L563.78 323.569L564.16 325.669L564.31 327.869V327.889L564.67 328.129L564.87 328.119L564.97 327.939L568.35 310.029L568.8 309.169L569.64 308.689L586.73 304.829L587.1 304.659L586.74 304.449L569.27 299.279L568.66 298.899L568.32 298.259L564.82 282.749L564.61 282.389L564.29 282.649L563.92 283.289L563.44 284.639L563.26 286.139L562.91 293.319L562.11 299.859L561.73 300.279L546.58 304.319L546.26 304.489L546.58 304.679L561.25 309.019L562.05 309.519L562.48 310.349Z" fill="white"/>
<path d="M63.3596 318.039L62.8796 320.319L54.7896 348.679L54.5596 349.219L54.2496 349.469L53.7496 349.379L53.4996 349.059L44.0396 318.109L43.5896 317.329L42.8096 316.879L31.4496 313.379L19.1096 309.219L15.6196 307.819L15.0996 307.269L15.6896 306.799L29.2296 302.089L43.1396 298.019L43.5396 297.849L43.9696 297.459L44.2196 296.939L48.1296 283.259L52.3796 270.029L53.0496 268.389L53.8196 267.039L54.2796 266.689L54.6396 267.159L62.3396 291.389L63.3796 296.219L63.7096 296.929L64.3496 297.379L90.6496 306.719L90.7096 306.739L90.9896 307.079L90.9196 307.509L90.3696 308.029L89.4796 308.449L74.9496 313.529L64.2296 316.959L63.6496 317.379L63.3596 318.039ZM49.9796 298.869L49.4896 301.119L48.6996 302.399L47.9996 302.869L47.0396 303.179L40.2596 304.729L30.6496 307.219L30.2096 307.449L30.6596 307.669L47.5796 311.619L48.2396 311.879L48.8096 312.309L49.2196 312.889L49.4596 313.559L51.3896 322.989L52.8896 329.209L53.1896 330.049L53.6696 330.479L53.8796 329.919L55.3896 312.649L55.8196 311.639L56.7696 311.069L71.2896 307.789L72.0796 307.409L71.3196 306.979L57.4996 302.889L56.7196 302.529L56.0796 301.959L55.6296 301.229L55.4096 300.399L53.9596 287.589L53.7096 286.169L53.3896 285.669L52.9896 286.109L52.5096 287.469L51.0396 293.319L49.9796 298.869Z" fill="white"/>
<path d="M349.37 314.42L336.16 326.68L322.06 338.73L321.16 339.29L321.64 338.34L325.77 332.87L330.65 327.29L338.17 319.42L346.35 311.3L354.72 303.38L362.81 296.11L368.55 291.41L374.14 287.45L375.11 287L374.52 287.89L362.04 301.6L349.37 314.42Z" fill="white"/>
<path d="M259.87 299.469L260.65 297.719L261.53 293.739L262.47 291.399L262.8 291.119L263.02 291.489L264.14 297.149L264.38 298.459L264.92 299.479L265.56 300.139L266.38 300.649L268.68 301.329L273.95 302.339L274.29 302.539L274.11 302.899L273.33 303.559L272.68 303.849L271.36 304.089L267.77 304.939L266.55 305.549L265.68 306.269L264.96 307.289L264.44 308.639L262.9 314.899L262.67 315.269L262.3 315.059L261.73 314.239L261.44 313.369L260.81 310.529L259.87 308.049L258.72 306.289L257.39 305.269L254.69 304.369L251.52 303.849L251.21 303.569L251.36 303.259L252.18 302.589L252.93 302.289L254.83 301.889L258.5 300.639L259.34 300.129L259.87 299.469Z" fill="white"/>
<path d="M219.87 338.36L217.66 335.03L216.28 331.99L215.33 328.72L215.21 326.83L215.64 325.22L216.18 324.34L216.89 323.59L218.7 322.52L220.97 322.06L223.36 322.33L223.92 322.54L224.81 323.27L225.5 324.41L226.08 326.24L226.26 328.07L225.86 330.57L224.7 333.06L222.59 336.11L220.49 338.41L220.48 338.42L220.16 338.52L219.87 338.36Z" fill="white"/>
<path d="M239.7 342.63L240.75 341.97L241.32 340.86L244.64 325.29L244.99 324.83L245.56 324.81L245.68 324.87L246.01 325.73L247.66 334.92L249.22 341.1L249.62 341.94L250.16 342.56L250.87 343.08L252.82 343.76L263.2 346L264.5 346.39L264.93 346.78L264.5 347.17L263.21 347.55L250.46 350.43L249.69 350.85L249.25 351.61L245.13 367.65L245.05 367.8L244.96 367.87L244.65 367.91L244.55 367.81L244.46 367.6V367.58L243.31 360.98L241.81 354.29L240.92 352.57L239.81 351.21L238.1 349.93L235.94 349.02L233.24 348.42L229.4 348.01L228 347.89L227.93 347.88L227.23 347.63L226.57 347.08L226.45 346.79L226.7 346.6L239.7 342.63Z" fill="white"/>
<path d="M91.0399 448.04L90.7199 448.17L90.7099 448.23L90.5299 450.79L89.8099 453.1L89.0999 454.39L87.4299 456.28L84.6299 458.58L77.8499 463.69L77.3099 464.27L77.1399 464.85L77.3399 465.41L77.9199 465.96L80.8799 468.06L81.0899 468.25L81.3599 468.74L81.3899 469.29L81.1699 469.8L80.7499 470.17L73.5499 474L72.8299 474.13L72.2499 473.66L69.5599 468.88L67.5699 463.92L67.5199 463.47L67.6899 463.01L70.6199 458.75L72.4899 456.62L77.2299 452.53L82.3299 447.45L83.2999 446.1L83.6699 444.72L83.4699 443.32L82.6999 441.89L76.6399 432.29L76.2599 431.98L75.7999 432.06L62.8199 438.97L62.7899 438.99L62.4299 439.49L62.5399 440.1L65.1899 444.02L65.2199 444.07L65.3499 445.01L64.7599 445.75L59.1799 448.72L58.7299 448.8L58.3999 448.49L50.2499 433.2L50.1699 432.72L50.4999 432.38L56.1999 429.34L56.6199 429.27L56.9099 429.55L57.3099 430.3L57.6999 430.77L58.2299 431.06L58.8399 431.12L59.4199 430.94L96.6199 411.12L97.0699 410.54L96.9499 409.82L96.9099 409.76L96.4699 409L96.3299 408.24L96.4799 407.52L97.9799 406.26L100.86 404.18L101.58 404L102.18 404.42L102.23 404.53L105.5 411.55L109.93 419.71L113.44 426.44L115.83 432.42L116.17 433.95L116.12 436.25L115.42 438.62L114.5 440.47L113.31 442.3L111.88 444.05L110.27 445.68L108.58 447.07L106.77 448.24L104.99 449.11L103.17 449.7L101.18 450.07L99.2299 450.22L97.3399 450.14L95.5099 449.84L93.2299 449.12L91.0399 448.04ZM96.2199 441.5L98.3099 441.39L100.29 440.93L102.18 440.09L103.95 438.88L105.02 437.88L105.82 436.85L106.37 435.79L106.65 434.68L106.54 432.77L105.66 429.62L104.74 427.37L101 419.6L100.6 419.16L100.03 419.28L84.9399 427.98L84.3399 428.76L84.4599 429.73L87.8999 435.25L88.3499 435.91L90.6599 439.05L91.6199 439.96L92.6799 440.67L94.2499 441.26L96.2199 441.5Z" fill="white"/>
<path d="M514.43 443.3L542.33 460.92L542.82 461.12H543.35L543.84 460.92L544.23 460.55L545.23 459.62L546.48 459.18H547.04L547.56 459.36L552.17 461.83H552.18L552.26 462.17L543.05 476.75L542.68 477.18L542.27 477.38L541.82 477.32L541.34 477.03L537.03 473.49L536.54 472.95L536.33 472.38L536.42 471.79L536.8 471.16L537.88 469.85L538.03 469.41L537.75 469.06L510.73 451.35L506.65 448.47L502.91 445.48L502.46 445.23L501.96 445.18L501.47 445.34L501.09 445.68L501.04 445.76L498.77 449.35L498.28 449.74L497.7 449.52L494.02 446.5L493.46 445.65L493.72 444.68L500.06 434.64L500.94 433.81L502.15 433.61L511.15 434.41L521.03 435.06L531.95 435.81L537.88 436.15L544.02 436.49L548.3 437.1L549.74 437.19L548.58 436.34L518.94 420.48L518.02 420.37L517.27 420.92L516.43 422.25L515.96 422.79L515.43 423.08L514.83 423.09L514.16 422.85L510.4 420.84L509.8 420.39L509.49 419.87L509.5 419.26L509.8 418.58L517.67 406.12L518.14 405.77L518.78 405.87L523.4 408.8L523.86 409.35L523.73 410.05L522.64 412.08L522.58 412.47L522.85 412.75L537.73 420.69L559.46 432.67L560.81 432.87L563.07 432.47L563.51 432.44L564 432.62L566.65 434.29L567.17 434.73L567.43 435.24L567.45 435.8L567.22 436.43L562.58 445.1L561.83 445.86L560.79 446.07L545.49 444.91L528.78 443.95L521.41 443.19L518.12 442.97L514.85 443.06L514.48 443.09L514.3 443.16L514.43 443.3Z" fill="white"/>
<path d="M105.92 498.74L109.42 495.53L109.9 495.24L110.44 495.16L110.98 495.28L111.43 495.61L115.65 500.21L115.87 500.71L115.57 501.16L104.38 509.77L103.5 510.08L102.7 509.6L78.4196 481.45L78.1396 480.78L78.4896 480.14L82.4096 476.54L82.8496 476.27L83.3596 476.19L83.8596 476.31L84.2796 476.62L85.3796 477.82L85.3996 477.84L85.7096 477.96L86.0196 477.81L87.7696 476.08L90.3996 473.91L93.0396 471.7L101.69 463.79L111.7 455.07L116.84 449.92L116.9 449.85L117.15 449.38L117.19 448.86L117.01 448.36L116.65 447.97L115.76 447.34L115.45 446.9L115.62 446.4L117.01 444.82L118.59 443.48L120.85 442.11L121.3 442.04L121.69 442.27L146.65 469.44L147.02 469.97L147.12 470.49L146.96 470.99L146.54 471.48L136.36 480.26L136.11 480.36L135.9 480.17L134.56 478.13L132.98 476.33L131.51 475.03L131.46 474.98L131.39 474.71L131.56 474.48L133.16 473.52L134.33 472.52L135.07 471.49L135.37 470.42L135.33 469.64L134.47 468.02L132.37 465.77L128.5 461.81L125.12 457.77L124.59 457.31L123.91 457.09L123.21 457.15L122.59 457.49L122.53 457.54L111.96 467.26L111.4 467.94L111.2 468.63L111.35 469.33L111.84 470.05L115.79 474.35L116.28 474.75L116.79 474.91L117.31 474.83L117.85 474.51L120.49 472.39L121.22 472.13L121.81 472.62L124.93 477.7L125.12 478.7L124.6 479.58L114.36 487.78L113.48 488.1L112.6 487.81L111.08 486.57L110.06 485.47L109.46 484.36L109.32 483.36L109.36 483.07L110.4 481.33L110.69 480.55L110.55 479.53L109.87 478.44L105.15 473.42L104.79 473.24L104.42 473.41L92.7596 484.13L92.4396 484.69L92.6896 485.31L104.19 498.64L104.21 498.66L105.04 499.06L105.92 498.74Z" fill="white"/>
<path d="M492.24 454.359L494.83 454.119L497.46 454.169L500.22 454.509L502.98 455.139L505.81 456.059L508.59 457.239L511.39 458.719L514.07 460.419L516.6 462.319L518.97 464.399L521.16 466.649L523.12 469.029L524.82 471.489L526.25 474.039L527.36 476.569L528.19 479.149L528.94 482.929L529.18 486.549L528.91 490.009L528.13 493.299L526.61 496.899L524.4 500.289L522.62 502.409L520.69 504.369L518.7 506.069L516.59 507.569L514.47 508.779L512.25 509.769L510.03 510.499L507.71 510.989L504.02 511.249L500.5 510.969L497 510.259L493.65 509.169L490.73 507.749L487.69 505.819L484.88 503.699L482.29 501.389L479.92 498.879L476.58 494.449L473.82 489.529L472.8 486.779L472.2 483.669L471.97 480.129L472.08 475.339L472.54 471.539L473.51 468.529L475.13 465.519L477 462.859L479.11 460.549L481.48 458.579L483.86 457.089L486.44 455.889L489.24 454.979L492.24 454.359ZM484.82 467.299L483.41 469.009L482.32 470.909L481.5 473.049L481.01 475.299L480.82 477.779L480.98 480.259L481.47 482.679L482.26 484.989L484.24 488.599L487.36 492.779L489.11 494.679L491.15 496.469L493.46 498.159L496.05 499.739L499.04 501.139L502.02 501.979L504.96 502.239L507.83 501.919L509.93 501.279L511.97 500.289L513.84 499.009L515.62 497.399L517.19 495.579L518.42 493.679L519.37 491.629L519.96 489.509L520.21 486.629L519.88 483.699L518.97 480.739L517.5 477.779L515.86 475.229L514.12 472.959L512.28 470.969L510.35 469.259L506.09 466.229L502.44 464.339L500.12 463.599L497.68 463.169L495.2 463.069L492.72 463.309L490.49 463.849L488.36 464.719L486.49 465.859L484.82 467.299Z" fill="white"/>
<path d="M163.84 504.33L145.33 535.68L145.25 536.36L145.69 536.87L145.75 536.9L147.68 538.01L147.87 538.32L147.77 538.72L145.17 542.83L145.16 542.85L144.58 543.23L143.9 543.08L130.47 533.54L130.18 533.14L130.32 532.67L133.15 528.69L133.5 528.44L133.89 528.56L135.96 530.03L135.98 530.04L136.71 530.18L137.32 529.76L160.86 492.5L160.87 492.49L160.9 492.17L160.7 491.93L159.28 491.12L157.66 489.95L156.17 488.57L155.74 488.27L155.23 488.16L154.72 488.26L154.29 488.54L154.28 488.55L136.23 506.55L130.4 512.93L124.59 519.24L124.39 519.63L124.58 520.03L127.21 522.65L127.44 523.13L127.21 523.6L123.24 527.57L122.78 527.8L122.32 527.57L110.82 516.08L110.43 515.55L110.3 515.03L110.43 514.51L110.82 513.99L113.12 511.69L113.63 511.31L114.14 511.17L114.67 511.28L115.21 511.63L116.86 513.09L117.26 513.27L117.66 513.09L119.99 510.72L122.91 507.26L124.71 505.11L135.41 493.48L145.97 482.85L146.13 482.66L146.42 482.04V481.36L146.13 480.74L145.61 480.3L144.67 479.79L144.12 479.39L143.88 478.94L143.95 478.43L144.32 477.86L147.83 473.89L148.37 473.48L149.03 473.31L149.7 473.42L150.27 473.77L150.31 473.81L155.69 478.93L161.28 483.72L167.06 488.15L173.05 492.25L174.02 493.77L174.07 493.87L174.26 494.62L174.21 495.49L173.58 499.63L172.29 515.03L170.38 531.17L170.01 535.55L169.38 539.9L169.33 541.13L170.12 540.19L188.1 509.86L188.15 509.76L188.06 509.09L187.44 508.65H187.42L185.64 507.78L185.24 507.21L185.35 506.69L187.67 502.36L187.93 502.11L188.27 502.18L202.35 510.31L202.82 510.68L203.05 511.11L203.06 511.59L202.84 512.13L200.35 516.44L199.99 516.83L199.47 516.98L198.69 516.85L198.07 516.4L197.57 515.64L197.14 515.27L196.59 515.34L196.52 515.39L195.18 516.77L193.84 518.75L187.28 529.73L178.59 543.78L168.71 559.15L168.47 559.33L168.18 559.27L160.16 554.64L159.78 554.26L159.7 553.75L164.34 507.85L164.23 504.43L164.1 504.08L163.84 504.33Z" fill="white"/>
<path d="M436.29 506.99L460.25 542.49L461.07 543.029L462.02 542.839L463.47 541.339L464.04 541.039L464.64 541.289L464.72 541.399L467.81 546.419L467.89 546.759L467.66 547.039L453.7 555.62L452.73 555.849L451.95 555.24L449.59 551.75L449.4 550.789L449.94 549.969L451.65 548.81L452.17 548.029L451.98 547.12L428.77 512.74L427.92 512.069L426.87 512.219L423.64 514.159L420.46 516.849L420.12 517.56L420.31 518.319L422.95 522.219L423.19 522.719L423.21 523.169L423.01 523.579L422.58 523.94L417.58 527.009L417.02 527.219L416.42 527.199L415.88 526.949L415.47 526.509L408.46 515.099L408.35 514.589L408.7 514.24L410.16 513.589L412.26 512.579L440.48 495.19L446.3 491.419L450.74 488.139L460.59 480.259L461.3 479.979L462 480.299L463.68 482.06L464.92 484.029L465.26 484.799L465.27 485.269L464.98 485.639L463.57 486.5L463.51 486.539L463.05 487.299L463.3 488.149L489.48 519.81L490.18 520.169L490.92 519.909L490.95 519.88L492.62 518.209L493.18 517.93L493.74 518.209L498.15 522.62L498.36 523.039L498.12 523.44L485.16 534.609L484.65 534.829L484.15 534.579L480.66 531.089L480.31 530.62L480.19 530.149L480.31 529.68L480.66 529.219L482.45 527.43L482.78 526.949L482.9 526.389L482.82 525.819L482.53 525.319L461.01 500.399L458.51 497.709L455.62 495L454.81 494.459L454.01 494.299L452.84 494.74L451.7 495.99L451.37 496.94L451.68 497.87L453.86 500.969L455.33 502.659L455.82 503.229L455.96 503.779L455.75 504.31L455.19 504.819L450.07 508.279L449.38 508.609L448.78 508.62L448.28 508.299L447.87 507.639L446.49 505.38L443.89 502.13L443.58 501.959L443.23 502.039L436.35 506.68L436.24 506.829L436.29 506.99Z" fill="white"/>
<path d="M232.53 527.58L232.83 527.98L233.15 527.39L233.65 526.18L234.41 525.47L234.44 525.46L234.6 525.39L235.43 525.33L236.41 525.68L238.39 526.58L240.74 527.41L241.01 527.61L240.99 527.95L235.03 542.85L234.64 543.53L234.12 543.95L233.47 544.12L232.7 544.03L227.61 542.72L226.86 542.4L226.42 541.93L226.3 541.3L226.49 540.51L227.2 537.74L227.26 536.3L227.1 534.91L226.39 532.72L225.17 530.75L223.5 529.04L221.42 527.66L219.62 526.87L217.77 526.36L216.05 526.16L214.29 526.2L212.48 526.48L210.63 527L208.13 528.04L205.88 529.35L203.7 531.07L201.8 533.05L200.08 535.39L198.64 537.95L197.41 540.83L196.4 544.06L195.65 547.47L195.14 551.15L195.04 553.2L195.16 555.16L195.5 557.03L196.07 558.82L197.46 561.54L199.43 564.03L200.86 565.37L202.4 566.5L204.02 567.42L205.71 568.13L207.45 568.61L209.22 568.87L211.01 568.9L212.79 568.69L214.81 568.15L216.78 567.28L218.58 566.14L220.27 564.68L220.95 564.17L221.62 564.02L222.28 564.22L222.92 564.78L227.4 569.97L227.8 570.58L227.84 571.1L227.53 571.51L226.87 571.83L225.56 572.48L223.54 573.84L220.88 575.29L217.44 576.45L213.49 577.2L210.25 577.31L206.75 576.84L203.43 576.04L200.3 574.92L197.34 573.47L195.06 572.05L192.42 569.9L190.26 567.45L188.63 564.85L187.4 561.99L186.54 558.77L186.07 555.29L185.94 551.84L186.08 548.46L186.48 545.15L187.15 541.91L188.3 538.13L189.83 534.45L191.74 530.86L194.03 527.37L195.9 525.07L198.02 523.05L200.42 521.28L203.08 519.8L205.99 518.62L209.14 517.73L212.36 517.31L215.9 517.44L218.41 517.83L220.78 518.45L223.02 519.3L225.13 520.38L227.05 521.65L228.85 523.15L230.52 524.86L232.06 526.79L232.53 527.58Z" fill="white"/>
<path d="M434.28 559.58L435.37 559.16L436.46 559.03L437.17 559.1L437.69 559.33L438.01 559.71L440.01 563.47L440.05 563.73L439.88 563.91L426.61 570.99L426 571.1L425.44 570.86L423.8 569.04L422.39 566.59L422.29 566.05L422.52 565.55L423.9 563.87L424.16 563.15L423.9 562.42L418.86 556.12L418.25 555.57L417.49 555.24L416.66 555.18L415.86 555.38L399.59 562.45L398.66 563.28L398.44 563.87L398.41 564.5L399.44 573.63L399.46 573.74L399.79 574.09L400.27 574.06L401.55 573.38L402.1 573.22L402.68 573.28L403.18 573.57L403.53 574.03L403.55 574.08L405.14 577.73L405.25 578.26L405.15 578.79L404.85 579.23L404.4 579.53L404.36 579.54L389.44 585.02L388.94 585.04L388.58 584.7L387.74 582.55L387.64 580.49L388.12 578.82L389.12 577.22L389.37 576.77L389.42 576.31L387.15 531.77L386.81 531.1L386.08 530.93L385.95 530.97L383.98 531.7L383.12 531.71L382.65 530.99L381.6 526.8L381.65 526.02L382.28 525.52L403.89 517.58L404.41 517.55L404.8 517.93L407.05 522.16L407.06 522.9L406.47 523.35H406.22L405.59 523.42L405.46 523.5L405.23 523.81L405.36 524.17L433.59 559.43L433.9 559.65L434.28 559.58ZM396.53 528.12L396.33 528.05L396.25 528.25L396.08 533.29L396.37 537.06L397.11 544.09L397.16 552.09L397.4 553.49L397.89 554.02L398.61 554.05L410.66 549.63L411.59 549.12L412.04 548.48L412.01 547.69L411.5 546.76L401.33 533.13L399.2 530.54L396.53 528.12Z" fill="white"/>
<path d="M342.5 550.35L342.83 551.51L343.2 552.61L348.76 584.54L349.31 585.55L350.35 586.03L352.58 586.29L353.1 586.46L353.47 586.84L353.72 587.28L354.32 589.22L354.24 591.52L354.04 591.93L353.63 592.13L337.94 594.79L337.35 594.7L337.07 594.17L336.18 588.89L336.2 588.18L336.47 587.55L336.96 587.1L337.56 586.94L337.79 586.95L338.45 586.91L339.12 586.49L339.34 586.12L339.37 585.66L332.08 542.65L331.74 542.15L331.14 542.1L331.02 542.15L329.79 542.86L329.62 542.94L329.02 543.05L328.43 542.9L327.95 542.52L327.67 541.98L327.15 539.3L327.08 536.92L327.25 536.51L327.64 536.28L334.13 535.25L337.29 535.03L340.41 535.02L341.5 535.29L342.36 535.99L354.47 551.45L367.33 568.27L369.55 571.76L369.68 571.87L369.93 571.67L369.98 571.21L366.4 555.68L363 539.5L362.51 538.63L361.61 538.22L358.73 537.89L358.22 537.73L357.81 537.33L357.23 535.82L357.07 534.06L357.39 532.6L358.12 531.67L358.98 531.32L372.67 528.51L373.11 528.54L373.38 528.9L373.89 530.81L374.13 532.73L374.07 535.12L373.93 535.55L373.58 535.87L373 536.33L372.61 536.95L372.4 537.75L372.53 539.83L382.18 586.06V586.08V586.68L381.94 587.22L381.51 587.63L380.96 587.84L373.31 589.13L372.67 588.88L342.93 550.23L342.72 550.14L342.53 550.26L342.5 550.35Z" fill="white"/>
<path d="M262.58 584.839L263.03 584.919L263.18 584.489V574.649L263.06 573.799L262.72 573.139L262.13 572.669L261.31 572.389L244.23 569.169L243.87 569.209L243.6 569.459L238.59 578.139L238.48 578.719L238.92 579.089L241.3 580.049L241.83 580.489L241.79 581.179L239.72 586.339L239.24 586.919L238.47 586.909L223.52 581.599L223.33 581.439L223.34 581.189L225.54 575.689L225.84 575.349L226.29 575.279L228.06 576.009L228.49 576.119L228.86 575.869L231 573.079L232.07 571.419L240.81 554.159L250.22 537.159L250.24 537.119L250.25 536.699L249.95 536.399L248.63 535.869L248.26 535.569L248.2 535.109L248.6 533.329L249.15 531.949L249.9 530.889L250.76 530.279L251.75 530.029L252.97 530.129L272.65 534.329L273.03 534.529L273.19 534.939L273.16 538.719L272.76 540.989L272.62 541.209L272.37 541.189L270.7 540.529L270.49 540.519L270.41 540.709L270.35 545.099L273.52 580.599L274.45 586.529L274.68 586.949L275.14 587.089H276.29L276.81 587.259L277.01 587.779L277.3 593.349L277.05 593.979L276.42 594.209L276.32 594.199L260.01 591.119L259.98 591.109L259.34 590.659L259.22 589.879L260.62 584.429L260.88 584.039L261.35 584.119L262.58 584.839ZM260.07 539.489L259.62 539.319L259.5 539.379L258.87 540.029L253.75 549.299L248.22 560.139L248.08 560.689L248.17 561.249L248.49 561.719L248.96 562.029L249.1 562.069L260.35 564.949L261.28 565.059L261.93 564.809L262.29 564.219L262.36 563.279L261.02 542.139L260.76 541.049L260.07 539.489Z" fill="white"/>
<path d="M317.71 566.26L319.15 567.39L321.01 568.92L322.16 570.34L323.05 572.48L323.66 575.41L324.06 578.49L324.25 581.74L324.24 585.14L324.31 586.03L324.59 586.86L325 587.47L325.59 587.89L326.78 588L328.35 587.59L329.73 586.95L329.95 587.03L329.96 587.06L330.76 594.17L330.73 594.39L330.59 594.54L329.46 594.98L324.33 595.48L321.9 595.62L320.34 595.28L320.18 595.19L318.25 593.79L316.64 591.85L315.5 589.61L314.82 587.03L314.28 582.16L314.15 577.45L314.07 575.38L313.76 573.77L313.2 572.44L312.35 571.38L311.54 570.8L310.55 570.38L309.37 570.13L307.98 570.06L302.23 570L297.85 569.66L297.27 569.7L296.76 569.97L296.4 570.42L296.24 570.98V571.07V587.48L296.43 587.94L296.89 588.13H300.74L301.4 588.22L301.87 588.51L302.16 588.98L302.25 589.64V593.73L302.16 594.33L301.91 594.77L301.47 595.05L300.86 595.16L296.96 595.18L292.79 594.99L283.67 593.98L283.28 593.75L283.13 593.29L283.3 587.85L283.38 587.61L283.97 587.05L284.46 586.96L285.04 587.08L286.47 587.94L286.84 588.01L287.11 587.75L287.13 587.62V544.11L286.95 543.52L286.47 543.13L284.1 542.18L283.68 541.88L283.47 541.41L283.2 538.79L283.39 536.45L283.85 535.74L284.68 535.55L287.11 535.88L301.99 536.09L307.91 536.39L312.82 536.82L316.34 537.59L317.93 538.24L319.41 539.07L321.85 541.06L323.91 543.66L325.07 545.93L325.8 548.4L326.11 551.07L325.95 553.77L325.35 556.35L324.31 558.79L322.91 560.92L321.12 562.76L317.74 565.52L317.49 565.89L317.71 566.26ZM297.07 558.72L296.76 560.25L296.52 561.38L296.66 561.81L297.09 561.99L298.1 562.07L302.61 562.2L307.15 561.97L309.54 561.59L311.55 560.92L313.2 559.97L314.49 558.72L315.41 557.15L315.96 555.29L316.13 553.14L315.92 550.68L315.17 548.08L314.56 547.02L313.79 546.13L312.69 545.28L311.39 544.66L309.87 544.25L308.13 544.07H298.48L297.64 544.44L297.29 545.28L297.07 558.72Z" fill="white"/>
</svg>
